<?xml version="1.0" encoding="iso-8859-1"?>
<!-- Generator: Adobe Illustrator 19.0.0, SVG Export Plug-In . SVG Version: 6.00 Build 0)  -->
<svg version="1.1" id="Layer_1" xmlns="http://www.w3.org/2000/svg" xmlns:xlink="http://www.w3.org/1999/xlink" x="0px" y="0px"
	 viewBox="0 0 512 512" style="enable-background:new 0 0 512 512;" xml:space="preserve">
<circle style="fill:#273B7A;" cx="256" cy="256" r="256"/>
<path style="fill:#121149;" d="M498.802,337.329L285.918,124.552l-29.78,186.751l-147.927,88.066l109.827,109.827
	C230.424,511.035,243.1,512,256,512C368.954,512,464.813,438.843,498.802,337.329z"/>
<path style="fill:#EAA22F;" d="M370.585,399.369H108.211V354.9c0-31.608,20.227-59.67,50.212-69.665l48.178-16.06h65.593
	l48.178,16.06c29.986,9.995,50.212,38.057,50.212,69.665V399.369z"/>
<path style="fill:#E09112;" d="M370.585,354.9c0-31.608-20.227-59.67-50.212-69.665l-48.178-16.06h-32.858v130.193h131.248V354.9z"
	/>
<polygon style="fill:#F2D175;" points="272.194,269.176 239.397,301.971 206.601,269.176 206.601,236.378 272.194,236.378 "/>
<polygon style="fill:#E2BF69;" points="239.337,236.378 239.337,301.911 239.397,301.971 272.194,269.176 272.194,236.378 "/>
<path style="fill:#FFEDB5;" d="M173.804,170.786c0-36.226,29.367-65.593,65.593-65.593s65.593,29.367,65.593,65.593
	s-29.367,98.39-65.593,98.39S173.804,207.012,173.804,170.786z"/>
<path style="fill:#FEE187;" d="M239.397,105.193c-0.021,0-0.041,0.002-0.062,0.002v163.978c0.021,0,0.041,0.003,0.062,0.003
	c36.226,0,65.593-62.164,65.593-98.39C304.992,134.559,275.623,105.193,239.397,105.193z"/>
<circle style="fill:#D35933;" cx="358.9" cy="289.72" r="51.786"/>
<path style="fill:#B54324;" d="M395.516,253.097c-10.231-10.231-23.678-15.279-37.086-15.158v103.564
	c13.409,0.119,26.855-4.927,37.086-15.158C415.741,306.117,415.741,273.324,395.516,253.097z"/>
<path style="fill:#FFFFFF;" d="M383.75,281.102h-16.239v-16.239c0-4.761-3.858-8.62-8.62-8.62s-8.62,3.858-8.62,8.62v16.239h-16.239
	c-4.761,0-8.62,3.858-8.62,8.62s3.858,8.62,8.62,8.62h16.239v16.239c0,4.761,3.858,8.62,8.62,8.62s8.62-3.858,8.62-8.62v-16.239
	h16.239c4.761,0,8.62-3.858,8.62-8.62S388.511,281.102,383.75,281.102z"/>
<path style="fill:#D0D1D3;" d="M383.75,281.102h-16.239v-16.239c0-4.761-3.858-8.62-8.62-8.62c-0.159,0-0.307,0.038-0.464,0.047
	v66.863c0.157,0.009,0.305,0.047,0.464,0.047c4.761,0,8.62-3.858,8.62-8.62v-16.239h16.239c4.761,0,8.62-3.858,8.62-8.62
	S388.511,281.102,383.75,281.102z"/>
<path style="fill:#FFC61B;" d="M304.992,170.786c0-36.226-29.367-65.593-65.593-65.593s-65.595,29.367-65.595,65.593
	c0,14.457,4.687,33.037,12.61,50.155c-1.857-9.854-1.36-19.928-0.386-27.529c41.636-3.267,67.358-29.62,67.358-29.62
	s19.54,16.222,38.614,24.536c1.352,7.759,2.686,20.377,0.365,32.647C300.297,203.848,304.992,185.251,304.992,170.786z"/>
<path style="fill:#EAA22F;" d="M304.992,170.786c0-36.226-29.367-65.593-65.593-65.593c-0.021,0-0.041,0.002-0.062,0.002v69.654
	c9.087-5.977,14.05-11.057,14.05-11.057s19.54,16.222,38.614,24.536c1.352,7.759,2.686,20.377,0.365,32.647
	C300.297,203.848,304.992,185.251,304.992,170.786z"/>
<g>
</g>
<g>
</g>
<g>
</g>
<g>
</g>
<g>
</g>
<g>
</g>
<g>
</g>
<g>
</g>
<g>
</g>
<g>
</g>
<g>
</g>
<g>
</g>
<g>
</g>
<g>
</g>
<g>
</g>
</svg>
