<?xml version="1.0" encoding="utf-8"?>
<!-- Generator: Adobe Illustrator 20.1.0, SVG Export Plug-In . SVG Version: 6.00 Build 0)  -->
<svg version="1.1" id="Capa_1" xmlns="http://www.w3.org/2000/svg" xmlns:xlink="http://www.w3.org/1999/xlink" x="0px" y="0px"
	 viewBox="0 0 6144 2016" style="enable-background:new 0 0 6144 2016;" xml:space="preserve">
<style type="text/css">
	.st0{clip-path:url(#SVGID_2_);fill:url(#SVGID_3_);}
	.st1{clip-path:url(#SVGID_5_);fill:url(#SVGID_6_);}
	.st2{clip-path:url(#SVGID_8_);fill:url(#SVGID_9_);}
	.st3{clip-path:url(#SVGID_11_);fill:url(#SVGID_12_);}
	.st4{fill:#F9F9F9;}
	.st5{fill:#F9F9FA;}
</style>
<path d="M6140.6,1737.2c0,149.8-121.5,271.3-271.3,271.3H274.2c-149.8,0-271.3-121.5-271.3-271.3V272.1
	C2.9,122.3,124.4,0.8,274.2,0.8h5595.2c149.8,0,271.3,121.5,271.3,271.3L6140.6,1737.2L6140.6,1737.2z"/>
<g id="PLAY_2_">
	<g>
		<defs>
			<path id="SVGID_1_" d="M1333,884.6l-276.8-159.8c0,0-504.2-291.1-533.8-308.2c-29.6-17.1-59.2-6.7-59.2,29
				c0,59.6,0,621.6,0,621.6s0,607.4,0,634.2c0,26.8,21.1,38.4,46.9,23.5c25.7-14.9,546.1-315.3,546.1-315.3l276.7-159.8
				c0,0,234.8-135.6,266-153.6c31.2-18,28.2-42.8,1.9-56.9C1574.5,1025,1333,884.6,1333,884.6z"/>
		</defs>
		<clipPath id="SVGID_2_">
			<use xlink:href="#SVGID_1_"  style="overflow:visible;"/>
		</clipPath>
		
			<linearGradient id="SVGID_3_" gradientUnits="userSpaceOnUse" x1="2868.2654" y1="1074.4557" x2="2868.2654" y2="961.1526" gradientTransform="matrix(12 0 0 -12 -33613.1406 13280.8145)">
			<stop  offset="0" style="stop-color:#257CB0"/>
			<stop  offset="0.2863" style="stop-color:#4A93B5"/>
			<stop  offset="0.767" style="stop-color:#78BCBB"/>
			<stop  offset="1" style="stop-color:#89CFBD"/>
		</linearGradient>
		<polygon class="st0" points="463.2,387.3 463.2,1067.2 463.2,1747 1148.8,1067.2 		"/>
	</g>
	<g>
		<defs>
			<path id="SVGID_4_" d="M1333,884.6l-276.8-159.8c0,0-504.2-291.1-533.8-308.2c-29.6-17.1-59.2-6.7-59.2,29
				c0,59.6,0,621.6,0,621.6s0,607.4,0,634.2c0,26.8,21.1,38.4,46.9,23.5c25.7-14.9,546.1-315.3,546.1-315.3l276.7-159.8
				c0,0,234.8-135.6,266-153.6c31.2-18,28.2-42.8,1.9-56.9C1574.5,1025,1333,884.6,1333,884.6z"/>
		</defs>
		<clipPath id="SVGID_5_">
			<use xlink:href="#SVGID_4_"  style="overflow:visible;"/>
		</clipPath>
		
			<linearGradient id="SVGID_6_" gradientUnits="userSpaceOnUse" x1="2839.6982" y1="1046.3357" x2="2912.1772" y2="1046.3357" gradientTransform="matrix(12 0 0 -12 -33613.1406 13280.8145)">
			<stop  offset="0" style="stop-color:#52C1AD"/>
			<stop  offset="1" style="stop-color:#DEE89A"/>
		</linearGradient>
		<polygon class="st1" points="1333,884.6 1056.2,724.8 463.2,382.4 463.2,387.3 1148.8,1067.2 		"/>
	</g>
	<g>
		<defs>
			<path id="SVGID_7_" d="M1333,884.6l-276.8-159.8c0,0-504.2-291.1-533.8-308.2c-29.6-17.1-59.2-6.7-59.2,29
				c0,59.6,0,621.6,0,621.6s0,607.4,0,634.2c0,26.8,21.1,38.4,46.9,23.5c25.7-14.9,546.1-315.3,546.1-315.3l276.7-159.8
				c0,0,234.8-135.6,266-153.6c31.2-18,28.2-42.8,1.9-56.9C1574.5,1025,1333,884.6,1333,884.6z"/>
		</defs>
		<clipPath id="SVGID_8_">
			<use xlink:href="#SVGID_7_"  style="overflow:visible;"/>
		</clipPath>
		
			<linearGradient id="SVGID_9_" gradientUnits="userSpaceOnUse" x1="2875.9373" y1="1017.8036" x2="2875.9373" y2="960.7407" gradientTransform="matrix(12 0 0 -12 -33613.1406 13280.8145)">
			<stop  offset="0" style="stop-color:#EC413D"/>
			<stop  offset="0.1668" style="stop-color:#DA4452"/>
			<stop  offset="0.5748" style="stop-color:#B0487A"/>
			<stop  offset="0.8619" style="stop-color:#954A92"/>
			<stop  offset="1" style="stop-color:#8A4A9D"/>
		</linearGradient>
		<polygon class="st2" points="463.2,1747 463.2,1751.9 1056.2,1409.5 1333,1249.8 1148.8,1067.2 		"/>
	</g>
	<g>
		<defs>
			<path id="SVGID_10_" d="M1333,884.6l-276.8-159.8c0,0-504.2-291.1-533.8-308.2c-29.6-17.1-59.2-6.7-59.2,29
				c0,59.6,0,621.6,0,621.6s0,607.4,0,634.2c0,26.8,21.1,38.4,46.9,23.5c25.7-14.9,546.1-315.3,546.1-315.3l276.7-159.8
				c0,0,234.8-135.6,266-153.6c31.2-18,28.2-42.8,1.9-56.9C1574.5,1025,1333,884.6,1333,884.6z"/>
		</defs>
		<clipPath id="SVGID_11_">
			<use xlink:href="#SVGID_10_"  style="overflow:visible;"/>
		</clipPath>
		
			<linearGradient id="SVGID_12_" gradientUnits="userSpaceOnUse" x1="2917.6829" y1="1033.0206" x2="2917.6829" y2="1002.5887" gradientTransform="matrix(12 0 0 -12 -33613.1406 13280.8145)">
			<stop  offset="0" style="stop-color:#F58879"/>
			<stop  offset="0.1194" style="stop-color:#F69079"/>
			<stop  offset="0.7128" style="stop-color:#FCB877"/>
			<stop  offset="1" style="stop-color:#FEC874"/>
		</linearGradient>
		<polygon class="st3" points="1333,884.6 1148.8,1067.2 1333,1249.8 1649.3,1067.2 		"/>
	</g>
</g>
<path class="st4" d="M4779.6,1332.9c-25.8,0-49.2-4.8-70.5-14.2c-21.3-9.5-39.2-24.1-53.6-43.8h-4.3c2.9,23.1,4.3,45,4.3,65.7v162.7
	h-59.9V930.3h48.7l8.3,54.1h2.9c15.4-21.7,33.3-37.3,53.8-46.9c20.4-9.6,43.9-14.4,70.3-14.4c52.4,0,92.9,17.9,121.4,53.8
	c28.5,35.8,42.8,86.1,42.8,150.8c0,64.9-14.5,115.4-43.5,151.4C4871.3,1315,4831,1332.9,4779.6,1332.9z M4770.9,974
	c-40.4,0-69.6,11.2-87.7,33.6c-18,22.4-27.3,58-27.8,106.8v13.3c0,55.6,9.3,95.3,27.8,119.3c18.5,23.9,48.2,35.9,89.1,35.9
	c34.2,0,60.9-13.8,80.3-41.5c19.3-27.6,29-65.8,29-114.4c0-49.3-9.7-87.1-29-113.5C4833.3,987.1,4806,974,4770.9,974z"/>
<path class="st4" d="M5082.4,1325.7h-59.9V764.4h59.9V1325.7z"/>
<path class="st4" d="M5426.7,1325.7l-11.9-56.3h-2.9c-19.7,24.8-39.4,41.6-59,50.3c-19.6,8.8-44.1,13.2-73.4,13.2
	c-39.2,0-69.9-10.1-92.2-30.3c-22.3-20.2-33.4-48.9-33.4-86.2c0-79.8,63.9-121.7,191.6-125.6l67.1-2.2v-24.5c0-31-6.7-54-20-68.7
	c-13.3-14.8-34.7-22.2-64-22.2c-33,0-70.2,10.1-111.8,30.3l-18.4-45.8c19.5-10.6,40.8-18.9,64.1-24.9c23.2-6,46.5-9,69.8-9
	c47.1,0,82.1,10.5,104.8,31.4c22.7,20.9,34.1,54.5,34.1,100.7v269.8L5426.7,1325.7L5426.7,1325.7z M5291.4,1283.5
	c37.3,0,66.5-10.2,87.8-30.7c21.3-20.4,31.9-49.1,31.9-85.9v-35.7l-59.9,2.5c-47.6,1.7-81.9,9.1-103,22.2
	c-21,13.1-31.6,33.5-31.6,61.2c0,21.6,6.5,38.1,19.7,49.4C5249.5,1277.9,5267.8,1283.5,5291.4,1283.5z"/>
<path class="st4" d="M5505.8,930.3h64.2l86.6,225.5c19,51.5,30.8,88.6,35.4,111.5h2.9c3.1-12.3,9.7-33.3,19.7-63
	c10-29.7,42.6-121,97.9-274h64.2l-169.9,450.3c-16.8,44.5-36.5,76.1-59,94.7c-22.5,18.6-50.1,27.9-82.8,27.9
	c-18.3,0-36.3-2-54.1-6.1v-48c13.2,2.9,28,4.3,44.4,4.3c41.1,0,70.5-23.1,88-69.3l22-56.3L5505.8,930.3z"/>
<path class="st4" d="M3670.2,967.1c19,15.7,58.7,48.8,58.7,111.7c0,61.2-34.7,90.2-69.5,117.4c-10.8,10.7-23.2,22.4-23.2,40.6
	c0,18.2,12.4,28.1,21.5,35.5l29.8,23.1c36.4,30.6,69.4,58.8,69.4,115.8c0,77.7-75.3,156.3-217.5,156.3
	c-119.9,0-177.8-57-177.8-118.3c0-29.8,14.8-71.9,63.7-100.9c51.2-31.4,120.8-35.5,158-38.1c-11.6-14.9-24.8-30.6-24.8-56.2
	c0-14,4.2-22.3,8.3-32.3c-9.1,0.8-18.2,1.7-26.5,1.7c-87.6,0-137.3-65.3-137.3-129.8c0-38.1,17.4-80.3,52.9-110.8
	c47.2-38.9,103.4-45.5,148.1-45.5h170.3l-52.9,29.8L3670.2,967.1L3670.2,967.1z M3611.4,1334.3c-6.6-0.9-10.8-0.9-19-0.9
	c-7.4,0-52.2,1.7-86.9,13.3c-18.2,6.6-71.1,26.4-71.1,85.2c0,58.7,57.1,100.9,145.6,100.9c79.3,0,121.6-38.1,121.6-89.4
	C3701.6,1401.2,3674.3,1379,3611.4,1334.3z M3635.4,1177.1c19-19,20.6-45.5,20.6-60.4c0-59.5-35.5-152.2-104.2-152.2
	c-21.5,0-44.7,10.7-57.9,27.3c-14,17.4-18.2,39.7-18.2,61.2c0,55.4,32.3,147.2,103.4,147.2
	C3599.9,1200.3,3622.1,1190.4,3635.4,1177.1z"/>
<path class="st4" d="M3149.5,1321.1c-131.3,0-201.5-102.4-201.5-194.9c0-108.2,88.3-200.6,213.9-200.6
	c121.3,0,197.3,94.9,197.3,194.9C3359.2,1217.8,3284.1,1321.1,3149.5,1321.1z M3252.7,1254.2c19.8-26.4,24.8-59.5,24.8-91.7
	c0-72.7-34.7-211.4-137.1-211.4c-27.2,0-54.5,10.8-74.3,28.1c-32.2,28.9-38,65.2-38,100.8c0,81.7,40.5,216.2,140.4,216.2
	C3200.7,1296.2,3233.8,1280.6,3252.7,1254.2z"/>
<path class="st4" d="M2702,1321.1c-131.3,0-201.5-102.4-201.5-194.9c0-108.2,88.4-200.6,213.9-200.6c121.4,0,197.3,94.9,197.3,194.9
	C2911.7,1217.8,2836.6,1321.1,2702,1321.1z M2805.2,1254.2c19.8-26.4,24.8-59.5,24.8-91.7c0-72.7-34.7-211.4-137.1-211.4
	c-27.2,0-54.5,10.8-74.3,28.1c-32.2,28.9-38,65.2-38,100.8c0,81.7,40.4,216.2,140.4,216.2
	C2753.2,1296.2,2786.2,1280.6,2805.2,1254.2z"/>
<path class="st4" d="M2437.4,1308.1l-118.7,27.4c-48.2,7.5-91.3,14.1-137,14.1c-229.2,0-316.3-168.5-316.3-300.5
	c0-161,123.7-310.4,335.4-310.4c44.8,0,88,6.6,127,17.4c62.3,17.4,91.3,39,109.6,51.5l-68.9,65.6l-29,6.6l20.7-33.2
	c-28.2-27.4-79.7-78-177.6-78c-131.2,0-230,99.7-230,244.9c0,156,112.9,303,293.9,303c53.2,0,80.5-10.8,105.4-20.8V1162l-125.3,6.6
	l66.4-35.7h176l-21.6,20.7c-5.9,5-6.7,6.7-8.3,13.3c-0.9,7.5-1.6,31.6-1.6,39.9L2437.4,1308.1L2437.4,1308.1z"/>
<path class="st4" d="M3932.5,1284.2c-27.4-2.5-33.1-7.5-33.1-39.9v-9.1V774.5c0.2-1.8,0.3-3.6,0.4-5.4c3.3-29,11.6-34,37.4-49
	h-118.8l-62.3,29.9h63.5v0.4l0-0.3v485.1v27.4c0,16.6-3.3,19.1-22.4,44h147l30.7-18.2C3960.8,1286.7,3946.7,1285.9,3932.5,1284.2z"
	/>
<path class="st4" d="M4270.3,1291.8c-9,5-18.1,10.8-27.1,14.8c-27.3,12.4-55.3,15.7-80.1,15.7c-26.3,0-67.6-1.7-109.7-32.2
	c-58.5-41.3-84-112.2-84-174c0-127.8,103.9-190.4,188.8-190.4c29.7,0,60.2,7.4,85,23.1c41.2,27.2,51.9,62.6,57.6,81.6l-193.7,78.3
	l-63.5,4.9c20.6,104.7,91.5,165.7,169.8,165.7c42,0,72.6-14.8,100.6-28.8L4270.3,1291.8z M4192.9,1046.1
	c15.6-5.7,23.9-10.7,23.9-22.2c0-33-37.1-70.9-81.6-70.9c-33,0-94.8,25.6-94.8,114.6c0,14,1.7,28.8,2.5,43.7L4192.9,1046.1z"/>
<path class="st4" d="M4349.9,931.4v54.4h-6.6v-54.4h-18v-5.6h42.6v5.6H4349.9z"/>
<path class="st4" d="M4424.1,985.8v-54.9h-0.3l-16.8,54.9h-5.2l-16.9-54.9h-0.2v54.9h-6v-60h10.3l15.3,48.5h0.2l15.1-48.5h10.4v60
	H4424.1z"/>
<path class="st5" d="M2030.3,577h-41.3c0-5.7-3.9-21.7-11.7-48.2h-59.6c-8.1,26-12.1,42.1-12.1,48.2h-38.8c0-3.3,10-30.9,30.1-82.5
	s30.1-80.1,30.1-85.3h48.7c0,4.9,9.1,32.9,27.3,84.1C2021.2,544.4,2030.3,572.3,2030.3,577z M1970.8,504.2
	c-14.7-44.3-22-68.3-22-71.9h-2.1c0,3.3-7.6,27.3-22.8,71.9H1970.8z"/>
<path class="st5" d="M2196.5,577h-31.8c0-3.5-11.8-22.1-35.4-55.8c-24.7-35.5-38.8-59.8-42.3-72.8h-2.1c2.1,18.8,3.2,35.8,3.2,51
	c0,21.2,0.6,47.1,1.8,77.6h-31.7c1.3-26.6,1.9-55.9,1.9-87.8c0-31.4-0.6-58.1-1.9-80.1h38.3c0,4.6,10.6,22.7,31.8,54.5
	c22.6,33.8,35.6,56.7,38.9,68.7h1.9c-2.1-19.2-3.1-36.3-3.1-51.6c0-23.3-0.6-47.2-1.8-71.7h32.2c-1.2,21.3-1.8,48-1.8,80.1
	C2194.7,521.5,2195.3,550.8,2196.5,577z"/>
<path class="st5" d="M2383.4,487.3c0,24.4-7.8,45.7-23.5,63.9c-15.6,18.2-37.6,27.3-65.7,27.3c-12.7,0-30.3-0.5-52.6-1.5
	c1.1-26,1.7-55.2,1.7-87.8c0-31.3-0.6-58-1.7-80.1h22.6c3.7,0,9.2-0.1,16.5-0.4c7.3-0.3,12.1-0.4,14.3-0.4c31,0,53.5,7.7,67.5,23.2
	C2376.4,447.1,2383.4,465.6,2383.4,487.3z M2348.2,492.8c0-16.5-4.8-30.4-14.4-41.7c-9.6-11.3-24.3-16.9-44.1-16.9
	c-3.7,0-8.8,0.4-15.2,1.2c0.9,17.2,1.3,35.1,1.3,53.9c0,20.5,0.4,40.9,1.3,61.1c5.6,1.1,11.2,1.7,16.8,1.7
	c18.5,0,32.2-5.7,41.1-17.2C2343.7,523.3,2348.2,509.3,2348.2,492.8z"/>
<path class="st5" d="M2555.6,577h-38.2c-10-30.4-17.6-49.2-22.9-56.3c-5.3-7.1-13.9-10.7-25.8-10.7c-5,0-9.8,0-14.3,0.1
	c0,22.1,0.4,44.4,1.2,66.9h-35.8c1.1-26,1.7-55.2,1.7-87.8c0-31.3-0.6-58-1.7-80.1h22.3c2.6,0,8-0.1,16.2-0.4
	c8.2-0.3,15.8-0.4,22.8-0.4c39.4,0,59.2,13.5,59.2,40.5c0,21.4-11.3,36.3-33.8,44.7v1.9c8.7,2.4,16.3,9.2,22.8,20.3
	C2535.7,527,2544.6,547.3,2555.6,577z M2507.3,458.4c0-17.1-11-25.7-33-25.7c-8.1,0-15.2,0.6-21.4,1.8c0.9,13.3,1.4,30.7,1.4,52.1
	c4.7,0.2,8.7,0.3,12,0.3C2493.6,486.9,2507.3,477.4,2507.3,458.4z"/>
<path class="st5" d="M2740.4,490c0,26.4-8.1,48.3-24.2,65.6c-16.2,17.4-36.1,26-59.9,26c-22.7,0-41.7-8-57-23.9
	c-15.3-15.9-22.9-36.2-22.9-60.8c0-26.4,8.1-48.3,24.2-65.6c16.2-17.4,36.1-26,59.9-26c22.7,0,41.7,7.9,57,23.8
	C2732.8,445,2740.4,465.3,2740.4,490z M2704.9,493.7c0-18-4.6-32.5-13.8-43.7c-9.2-11.2-20.5-16.8-34-16.8c-12.6,0-23.2,5.6-32,16.9
	c-8.8,11.3-13.2,25.5-13.2,42.7c0,17.9,4.6,32.4,13.9,43.6c9.2,11.2,20.6,16.8,34,16.8c12.5,0,23.2-5.7,32-17
	C2700.5,525,2704.9,510.8,2704.9,493.7z"/>
<path class="st5" d="M2813.3,577h-36.5c1.1-26.6,1.7-55.9,1.7-87.8c0-31.4-0.6-58.1-1.7-80.1h36.5c-1.1,21.7-1.7,48.3-1.7,80.1
	C2811.6,521.6,2812.2,550.9,2813.3,577z"/>
<path class="st5" d="M3000.1,487.3c0,24.4-7.8,45.7-23.5,63.9c-15.6,18.2-37.6,27.3-65.7,27.3c-12.7,0-30.3-0.5-52.6-1.5
	c1.1-26,1.7-55.2,1.7-87.8c0-31.3-0.6-58-1.7-80.1h22.6c3.7,0,9.2-0.1,16.5-0.4c7.3-0.3,12.1-0.4,14.3-0.4c31,0,53.5,7.7,67.5,23.2
	C2993.2,447.1,3000.1,465.6,3000.1,487.3z M2965,492.8c0-16.5-4.8-30.4-14.4-41.7c-9.6-11.3-24.3-16.9-44.1-16.9
	c-3.7,0-8.8,0.4-15.2,1.2c0.9,17.2,1.3,35.1,1.3,53.9c0,20.5,0.4,40.9,1.3,61.1c5.6,1.1,11.2,1.7,16.8,1.7
	c18.5,0,32.2-5.7,41.1-17.2C2960.5,523.3,2965,509.3,2965,492.8z"/>
<path class="st5" d="M3248,577h-41.3c0-5.7-3.9-21.7-11.7-48.2h-59.6c-8.1,26-12.1,42.1-12.1,48.2h-38.8c0-3.3,10-30.9,30.1-82.5
	s30.1-80.1,30.1-85.3h48.7c0,4.9,9.1,32.9,27.3,84.1C3238.9,544.4,3248,572.3,3248,577z M3188.5,504.2
	c-14.7-44.3-22.1-68.3-22.1-71.9h-2.1c0,3.3-7.6,27.3-22.8,71.9H3188.5z"/>
<path class="st5" d="M3398.4,453.1c0,20.5-7.6,35.7-22.9,45.5c-15.3,9.8-34,14.7-56.1,14.7c-4,0-6.9-0.1-8.6-0.3
	c0,16.2,0.5,37.5,1.4,63.9h-36.2c1.1-24.8,1.7-54.1,1.7-87.8c0-30.9-0.6-57.6-1.7-80.1h22.4c3.2,0,9.3-0.1,18.3-0.4
	c9-0.3,16.8-0.4,23.5-0.4c16.3,0,30.1,3.7,41.4,11.1C3392.7,426.9,3398.4,438.1,3398.4,453.1z M3365.1,460.2
	c0-18.4-12.2-27.6-36.6-27.6c-6.1,0-12.6,0.6-19.3,1.9c0.9,16.2,1.4,34.6,1.4,55.2c2.1,0.2,4.6,0.3,7.5,0.3
	C3349.4,490,3365.1,480.1,3365.1,460.2z"/>
<path class="st5" d="M3553,453.1c0,20.5-7.6,35.7-22.9,45.5c-15.3,9.8-34,14.7-56.1,14.7c-4,0-6.9-0.1-8.6-0.3
	c0,16.2,0.5,37.5,1.4,63.9h-36.2c1.1-24.8,1.7-54.1,1.7-87.8c0-30.9-0.6-57.6-1.7-80.1h22.4c3.2,0,9.3-0.1,18.3-0.4
	c9-0.3,16.8-0.4,23.5-0.4c16.3,0,30.1,3.7,41.4,11.1C3547.3,426.9,3553,438.1,3553,453.1z M3519.7,460.2c0-18.4-12.2-27.6-36.6-27.6
	c-6.1,0-12.6,0.6-19.3,1.9c0.9,16.2,1.4,34.6,1.4,55.2c2.1,0.2,4.6,0.3,7.5,0.3C3504.1,490,3519.7,480.1,3519.7,460.2z"/>
<path class="st5" d="M3805.8,490c0,26.4-8.1,48.3-24.2,65.6c-16.2,17.4-36.1,26-59.9,26c-22.7,0-41.7-8-57-23.9
	c-15.3-15.9-22.9-36.2-22.9-60.8c0-26.4,8.1-48.3,24.2-65.6s36.1-26,59.9-26c22.7,0,41.7,7.9,57,23.8
	C3798.1,445,3805.8,465.3,3805.8,490z M3770.2,493.7c0-18-4.6-32.5-13.8-43.7s-20.5-16.8-34-16.8c-12.6,0-23.2,5.6-32,16.9
	c-8.8,11.3-13.2,25.5-13.2,42.7c0,17.9,4.6,32.4,13.9,43.6c9.2,11.2,20.6,16.8,34,16.8c12.6,0,23.2-5.7,32-17
	C3765.8,525,3770.2,510.8,3770.2,493.7z"/>
<path class="st5" d="M3980.5,577h-31.8c0-3.5-11.8-22.1-35.4-55.8c-24.7-35.5-38.8-59.8-42.3-72.8h-2.1c2.1,18.8,3.2,35.8,3.2,51
	c0,21.2,0.6,47.1,1.8,77.6h-31.7c1.3-26.6,1.9-55.9,1.9-87.8c0-31.4-0.6-58.1-1.9-80.1h38.3c0,4.6,10.6,22.7,31.8,54.5
	c22.6,33.8,35.6,56.7,38.9,68.7h1.9c-2.1-19.2-3.1-36.3-3.1-51.6c0-23.3-0.6-47.2-1.8-71.7h32.2c-1.2,21.3-1.8,48-1.8,80.1
	C3978.7,521.5,3979.3,550.8,3980.5,577z"/>
</svg>
