<?xml version="1.0" encoding="utf-8"?>
<!-- Generator: Adobe Illustrator 20.1.0, SVG Export Plug-In . SVG Version: 6.00 Build 0)  -->
<svg version="1.1" id="Capa_1" xmlns="http://www.w3.org/2000/svg" xmlns:xlink="http://www.w3.org/1999/xlink" x="0px" y="0px"
	 viewBox="0 0 352.9 124.2" style="enable-background:new 0 0 352.9 124.2;" xml:space="preserve">
<style type="text/css">
	.st0{fill:#040707;}
	.st1{fill:#FFFFFF;}
	.st2{fill:#FEFEFE;}
</style>
<path class="st0" d="M352.9,14.9c0,31.5,0,62.9,0,94.4c-0.1,1.4-0.2,2.8-0.8,4.2c-2.1,5.4-6,8.8-11.5,10.4c-0.6,0.2-1.3,0.1-2,0.3
	c-108.1,0-216.1,0-324.2,0c-2.8-0.2-5.3-1.2-7.6-2.9c-4.4-3.4-6.9-7.8-6.9-13.4c0-30.5,0-61,0-91.5C0,9.2,4.8,2.7,11.7,0.5
	C12.8,0.2,14,0.2,15.1,0C122.8,0,230.4,0,338,0c2.2,0.1,4.3,0.7,6.3,1.8c4.2,2.3,6.9,5.8,8.3,10.3C352.9,13,352.7,14,352.9,14.9z"/>
<path class="st1" d="M27.7,64.8c-0.1-3.6,0.3-7,1.4-10.3c1-3.4,2.7-6.4,5-9.1c2.5-2.9,5.6-5,9.2-6.4c1.8-0.7,3.7-1,5.6-1.1
	c3.1-0.2,5.9,0.7,8.8,1.7c1.8,0.6,3.5,1.3,5.3,1.9c1.2,0.4,2.4,0.4,3.6-0.1c2.4-0.9,4.9-1.7,7.3-2.6c2.6-0.9,5.2-1.4,8-1.2
	c2.8,0.2,5.6,0.8,8.2,2c2.2,1,4.2,2.3,5.9,4c0.8,0.8,1.5,1.6,2.1,2.5c0.2,0.3,0.2,0.5-0.1,0.7c-1.2,0.7-2.3,1.6-3.3,2.5
	c-1.5,1.4-2.8,2.9-3.7,4.7c-1.2,2.2-1.9,4.6-2.2,7.1c-0.4,4,0.2,7.9,2.1,11.5c2,3.8,5,6.6,8.8,8.5c1,0.5,1,0.5,0.6,1.6
	c-0.8,2.3-1.7,4.5-2.8,6.7c-2,3.8-4.4,7.3-7.2,10.6c-1.2,1.5-2.6,2.8-4.3,3.8c-2.4,1.5-5,1.8-7.8,1.3c-2-0.4-3.8-1.2-5.7-1.9
	c-2.2-0.8-4.4-1.3-6.7-1.3c-2.1,0-4.1,0.5-6.1,1.2c-2,0.7-3.8,1.5-5.9,2c-3.1,0.8-6,0.2-8.5-1.7c-2.1-1.6-3.9-3.5-5.5-5.6
	c-1.8-2.4-3.5-4.8-5-7.4c-2-3.5-3.5-7.2-4.7-11.1c-1-3.2-1.7-6.6-2.1-10C27.7,67.8,27.6,66.2,27.7,64.8z"/>
<path class="st1" d="M160.2,72.3c0.1-0.2,0.3-0.4,0.4-0.6c2.2-3,5.2-4.1,8.8-3.8c4,0.4,6.5,2.8,7.9,6.4c1.5,3.9,1.4,7.9-0.3,11.7
	c-2.3,5.2-7.5,6.9-12,5.7c-1.7-0.5-3.1-1.4-4.1-2.8c-0.1-0.1-0.2-0.2-0.2-0.3c-0.2,0.2-0.1,0.4-0.1,0.6c0,3.7,0,7.4,0,11
	c0,0.2,0,0.4,0,0.6c0,0.3-0.1,0.4-0.4,0.4c-1.1,0-2.3,0-3.4,0c-0.3,0-0.4-0.1-0.4-0.4c0-0.2,0-0.4,0-0.6c0-9.2,0-18.4,0-27.7
	c0-1.1-0.1-2.2-0.1-3.3c0-0.9,0-0.8,0.7-0.8c0.8,0,1.5,0,2.3,0c0.7,0,0.7,0,0.8,0.7c0,0.9,0.1,1.9,0.1,2.8
	C160.1,72,160,72.1,160.2,72.3z"/>
<path class="st1" d="M187.4,72.3c0.3-0.2,0.4-0.4,0.6-0.6c2.2-2.9,5.2-4.1,8.8-3.7c4,0.4,6.6,2.8,7.9,6.5c1.4,3.8,1.3,7.6-0.3,11.3
	c-1.4,3.4-4.1,5.6-7.8,6.2c-2.3,0.4-4.5,0-6.5-1.2c-0.9-0.6-1.6-1.3-2.2-2.2c-0.1,0.3-0.1,0.6-0.1,0.8c0,3.6,0,7.2,0,10.9
	c0,0.2,0,0.4,0,0.6c0,0.2-0.1,0.4-0.3,0.4c-1.2,0-2.4,0-3.6,0c-0.2,0-0.3-0.1-0.3-0.3c0-0.2,0-0.4,0-0.6c0-8.3,0-16.7,0-25
	c0-2.1-0.1-4.2-0.2-6.2c0-0.5,0-0.5,0.5-0.5c0.9,0,1.9,0,2.8,0c0.4,0,0.5,0.2,0.5,0.5C187.2,70,187.3,71.1,187.4,72.3z"/>
<path class="st1" d="M151.7,91.5c-1.4,0-2.7,0-4.1,0c-0.4,0-0.4-0.2-0.5-0.5c-0.6-1.7-1.2-3.4-1.7-5.1c-0.5-1.4-0.9-2.7-1.4-4.1
	c-0.1-0.3-0.3-0.5-0.6-0.4c-3.5,0-7,0-10.6,0c-0.4,0-0.5,0.2-0.6,0.6c-1,3-2,5.9-2.9,8.9c-0.3,0.9-0.2,0.7-1,0.7c-1.1,0-2.3,0-3.4,0
	c-0.1-0.3,0.1-0.5,0.1-0.7c3.5-10.3,7-20.6,10.5-30.9c0.3-0.8,0.1-0.7,1-0.7c1.2,0,2.5,0,3.7,0c0.5,0,0.7,0.2,0.8,0.6
	c1.3,3.7,2.5,7.5,3.8,11.2c2.2,6.6,4.5,13.1,6.7,19.7C151.6,91,151.7,91.2,151.7,91.5z"/>
<path class="st1" d="M220.6,86.5c1.2,0.7,2.5,1.2,3.8,1.6c2,0.5,4,0.7,6,0.2c1.1-0.2,2-0.7,2.8-1.4c2.1-1.9,2.1-5.6,0.3-7.4
	c-0.7-0.7-1.5-1.2-2.3-1.7c-1-0.5-2-0.9-3-1.3c-1.6-0.6-3.2-1.3-4.6-2.4c-1.4-1.1-2.5-2.4-3.1-4.2c-1.1-3.5,0.3-7.2,3.3-9.3
	c1.7-1.1,3.5-1.7,5.5-1.8c2.6-0.2,5.2,0.1,7.7,1.1c0.9,0.4,0.9,0.4,0.6,1.3c-0.3,0.8-0.6,1.7-0.9,2.5c-0.3,0-0.5-0.2-0.7-0.3
	c-2.3-1-4.8-1.5-7.3-1c-0.8,0.1-1.5,0.4-2.1,0.8c-2.5,1.6-2.9,5.1-0.8,7.2c0.7,0.7,1.6,1.2,2.5,1.7c1,0.5,2,0.9,3,1.3
	c1.4,0.6,2.7,1.2,4,2c2.9,2,4.2,4.8,3.8,8.2c-0.3,3.3-2.1,5.7-5.1,7.1c-1.3,0.6-2.8,1-4.2,1.1c-3,0.3-6-0.1-8.8-1.2
	c-0.4-0.2-0.8-0.4-1.1-0.6c-0.2-0.1-0.3-0.3-0.2-0.5C220,88.6,220.3,87.6,220.6,86.5z"/>
<path class="st1" d="M281.2,79.7c0,1.8-0.2,3.4-0.8,5c-1.5,4-4.4,6.3-8.5,7.1c-1.9,0.4-3.7,0.3-5.5-0.2c-3.3-0.9-5.7-3-6.9-6.1
	c-1.5-3.8-1.5-7.7,0.3-11.4c1.7-3.6,4.7-5.5,8.6-6.1c1.9-0.3,3.8-0.1,5.7,0.6c3.7,1.3,5.9,4.1,6.8,7.9
	C281.2,77.5,281.3,78.6,281.2,79.7z"/>
<path class="st1" d="M318.5,87.6c0.2,0.9,0.4,1.8,0.6,2.6c0.1,0.3-0.1,0.4-0.3,0.5c-1.2,0.5-2.4,0.8-3.6,1c-2.2,0.3-4.4,0.5-6.5,0
	c-4.5-0.9-7.2-3.7-8.3-8.1c-0.8-3.3-0.5-6.6,1-9.8c1.5-3.1,3.9-5.1,7.3-5.8c1.7-0.3,3.3-0.3,5,0.1c2.2,0.6,4,1.9,5.1,3.9
	c1.4,2.5,1.9,5.1,1.6,7.9c-0.1,0.7-0.1,0.7-0.8,0.7c-4.8,0-9.5,0-14.3,0c-0.3,0-0.6,0-1,0c-0.3,0-0.4,0.1-0.4,0.4
	c0.1,3.4,1.8,6.8,6.4,7.5c2.6,0.4,5,0,7.5-0.8c0.1,0,0.2-0.1,0.4-0.1C318.3,87.7,318.3,87.7,318.5,87.6z"/>
<path class="st1" d="M63.9,36.8c-0.3-2.2-0.1-4.3,0.5-6.4c0.8-3,2.4-5.5,4.5-7.8c2.8-3.2,6.4-5.1,10.5-6.2c0.7-0.2,1.3-0.3,2-0.3
	c0.4,0,0.5,0.2,0.5,0.5c0.1,3.1-0.4,6.1-1.7,8.9c-1.1,2.3-2.5,4.5-4.3,6.3c-2.4,2.5-5.2,4.3-8.7,4.8C66.2,36.8,65.1,36.8,63.9,36.8z
	"/>
<path class="st1" d="M249.7,61.7c0,1,0,1.8,0,2.7c0,1.1,0,2.3,0,3.4c0,0.5,0,0.6,0.6,0.6c1.5,0,3.1,0,4.6,0c0.2,0,0.3,0,0.5,0
	c0.2,0,0.4,0.1,0.4,0.3c0,0.9,0,1.8,0,2.6c0,0.2-0.1,0.3-0.3,0.3c-0.2,0-0.4,0-0.6,0c-1.5,0-3,0-4.6,0c-0.6,0-0.6,0-0.6,0.6
	c0,4.2,0,8.3,0,12.5c0,0.8,0.1,1.5,0.4,2.3c0.4,0.9,1.1,1.5,2.1,1.6c1,0.1,2,0,3-0.2c0.2,1,0.2,1.9,0.2,2.9c0,0.3-0.2,0.3-0.3,0.4
	c-0.5,0.1-0.9,0.2-1.4,0.3c-1.3,0.2-2.6,0.2-3.8-0.1c-1.9-0.5-3.2-1.6-3.8-3.4c-0.4-1.2-0.6-2.5-0.6-3.9c0-4,0-8,0-12
	c0-0.2,0-0.3,0-0.5c0-0.4-0.1-0.5-0.5-0.5c-0.9,0-1.8,0-2.6,0c-0.4,0-0.5-0.1-0.5-0.5c0-0.8,0-1.5,0-2.3c0-0.4,0.1-0.5,0.5-0.5
	c0.8,0,1.5,0,2.3,0c0.8,0,0.7,0.1,0.7-0.8c0-1.4,0-2.7,0-4.1c0-0.7,0-0.7,0.7-0.9C247.4,62.3,248.5,62,249.7,61.7z"/>
<path class="st1" d="M121.1,38.1c0-3.1,0-6.2,0-9.3c0-0.7,0-0.7,0.7-0.8c2.4-0.3,4.7-0.5,7.1-0.2c1.3,0.1,2.6,0.4,3.8,1
	c2.6,1.2,4.2,3.2,4.8,6c0.5,2.4,0.4,4.8-0.5,7.2c-1.2,3.3-3.6,5.1-6.9,5.9c-2.2,0.5-4.4,0.5-6.6,0.4c-0.6,0-1.2-0.1-1.8-0.1
	c-0.6-0.1-0.6-0.1-0.6-0.7c0-2.1,0-4.2,0-6.2C121.1,40.2,121.1,39.1,121.1,38.1z"/>
<path class="st1" d="M290.2,73c0.3-0.3,0.4-0.6,0.5-0.9c1.1-2.3,2.8-3.8,5.4-4.2c0.5-0.1,1-0.1,1.5,0c0.3,0,0.5,0.1,0.5,0.5
	c0,1.2,0,2.3,0,3.5c-0.2,0.2-0.4,0.1-0.6,0.1c-2.4-0.3-4.2,0.6-5.5,2.6c-1,1.5-1.2,3.3-1.2,5.1c0,3.7,0,7.4,0,11c0,0.2,0,0.4,0,0.6
	c0,0.3-0.1,0.4-0.3,0.4c-1.1,0-2.3,0-3.4,0c-0.3,0-0.4-0.1-0.4-0.4c0-0.2,0-0.4,0-0.6c0-6.3,0-12.5,0-18.8c0-1-0.1-1.9-0.1-2.9
	c0-0.5,0-0.6,0.5-0.6c0.9,0,1.8,0,2.7,0c0.4,0,0.5,0.1,0.5,0.5C290.1,70.2,290.1,71.5,290.2,73z"/>
<path class="st1" d="M239.4,45.8c-0.1,0.1-0.2,0.2-0.3,0.2c-1.8,3.1-7.3,3.7-9.8-0.4c-0.6-0.9-0.9-1.9-1.1-2.9
	c-0.3-2-0.1-3.9,0.7-5.7c1.4-2.9,4.5-4.3,7.5-3.4c1,0.3,1.6,0.7,2.5,1.7c0.2-0.2,0.1-0.4,0.1-0.6c0-2.4,0-4.8,0-7.3
	c0-0.6,0-0.6,0.6-0.6c0.5,0,1.1,0,1.6,0c0.3,0,0.5,0.1,0.5,0.4c0,0.2,0,0.4,0,0.6c0,6.1,0,12.2,0,18.3c0,0.5,0,1.1,0.1,1.6
	c0,0.3-0.1,0.4-0.4,0.4c-0.1,0-0.1,0-0.2,0c-0.6,0-1.3,0.2-1.7-0.1c-0.4-0.3-0.1-1.1-0.2-1.7C239.4,46.2,239.4,46,239.4,45.8z"/>
<path class="st1" d="M164.8,36.6c-0.9,3.9-2.3,7.4-3.5,11c-0.1,0.4-0.4,0.6-0.8,0.5c-0.3,0-0.6,0-1,0c-1,0-0.8,0.1-1.1-0.8
	c-0.8-2.5-1.5-5-2.3-7.6c-0.5-1.8-1.1-3.6-1.6-5.4c-0.1-0.2-0.1-0.4-0.1-0.7c0.8,0,1.6,0,2.3,0c0.3,0,0.3,0.3,0.4,0.5
	c0.4,1.4,0.7,2.8,1.1,4.3c0.6,2.2,1.2,4.5,1.7,6.7c0,0.1,0,0.2,0.2,0.3c1-3.7,2.2-7.4,3.4-11c0.2-0.7,0.2-0.8,1-0.7
	c0.5,0,1-0.2,1.4,0.1c0.3,0.3,0.3,0.8,0.5,1.2c1,3.4,2.2,6.7,3,10.1c0,0.1,0.1,0.2,0.2,0.5c0.8-3.8,1.9-7.4,2.9-11
	c0-0.2,0.1-0.4,0.2-0.5c0-0.3,0.2-0.4,0.5-0.4c0.7,0,1.4,0,2.1,0c0.1,0.3,0,0.5-0.1,0.7c-1.4,4.4-2.8,8.8-4.2,13.1
	c-0.2,0.7-0.2,0.7-0.9,0.7c-0.4,0-0.8,0-1.2,0c-0.4,0-0.6-0.1-0.7-0.5c-0.5-1.6-1-3.2-1.6-4.9c-0.6-1.9-1.2-3.7-1.6-5.7
	C165,37,164.9,36.9,164.8,36.6z"/>
<path class="st1" d="M303,35.7c0.8-0.9,1.7-1.6,2.8-2c2.8-1.1,5.7,0.3,6.6,3.2c0.2,0.7,0.3,1.4,0.3,2.1c0,2.8,0,5.7,0,8.5
	c0,0.6,0,0.6-0.7,0.6c-0.4,0-0.9,0-1.3,0c-0.7,0-0.7,0-0.7-0.6c0-1.4,0-2.9,0-4.3c0-1.5,0.1-2.9-0.1-4.4c0-0.3-0.1-0.6-0.2-0.9
	c-0.5-1.8-2.1-2.7-3.9-2.2c-1.7,0.4-2.9,1.9-2.9,3.7c0,1.4,0,2.8,0,4.2c0,1.4,0,2.7,0,4.1c0,0.4-0.1,0.6-0.5,0.6c-0.6,0-1.1,0-1.7,0
	c-0.3,0-0.4-0.1-0.4-0.4c0-0.2,0-0.3,0-0.5c0-6.5,0-13,0-19.5c0-0.2,0-0.3,0-0.5c0-0.3,0.1-0.4,0.4-0.4c0.6,0,1.2,0,1.8,0
	c0.4,0,0.4,0.1,0.4,0.5c0,1.9,0,3.8,0,5.8C303,33.9,303,34.8,303,35.7z"/>
<path class="st1" d="M153.7,40.8c0,2.1-0.5,4-2.1,5.5c-2.2,2.1-4.7,2.6-7.5,1.7c-2.7-0.9-4.1-2.9-4.5-5.7c-0.2-1.3-0.1-2.5,0.2-3.7
	c1-3.9,4.4-5.7,7.8-5.3c3.9,0.4,5.9,3.4,6.1,6.7C153.7,40.3,153.7,40.6,153.7,40.8z"/>
<path class="st1" d="M265.7,40.8c0,2.1-0.5,4-2,5.6c-2.1,2.1-4.7,2.6-7.5,1.8c-2.7-0.9-4.1-2.9-4.6-5.7c-0.2-1.3-0.1-2.5,0.2-3.7
	c1-3.9,4.4-5.7,7.8-5.3c3.9,0.4,5.9,3.4,6.1,6.7C265.7,40.3,265.7,40.5,265.7,40.8z"/>
<path class="st1" d="M198.6,40.9c-0.1-0.9,0.1-1.8,0.4-2.7c1.2-3.8,4.6-5.2,7.7-4.9c3.4,0.4,5.7,2.7,6.1,6.2
	c0.2,1.3,0.1,2.6-0.3,3.8c-1.2,4.1-4.9,5.4-7.8,5.1c-4.1-0.5-6-3.7-6.1-6.8C198.6,41.4,198.6,41.2,198.6,40.9z"/>
<path class="st1" d="M179.8,35.9c0.2-0.1,0.3-0.3,0.4-0.4c1.4-1.8,3.7-2.6,5.9-2c2.1,0.6,3.2,2.2,3.6,4.3c0.1,0.6,0.2,1.2,0.1,1.7
	c0,2.6,0,5.2,0,7.8c0,0.8,0,0.8-0.8,0.8c-0.4,0-0.7,0-1.1,0c-0.8,0-0.8,0.1-0.8-0.7c0-0.4,0-0.7,0-1.1c0-2.1,0-4.2,0-6.2
	c0-0.6,0-1.3-0.2-1.9c-0.5-2.3-2.7-3.3-4.8-2.2c-1.4,0.7-2.1,1.9-2.1,3.4c0,2.6,0,5.2,0,7.8c0,0.2,0,0.4,0,0.6
	c0,0.3-0.1,0.5-0.4,0.5c-0.6,0-1.2,0-1.8,0c-0.3,0-0.4-0.1-0.4-0.4c0-0.2,0-0.4,0-0.6c0-4.1,0-8.3,0-12.4c0-0.4-0.2-0.8,0-1.1
	c0.3-0.3,0.8-0.1,1.1-0.1c1.1,0,1.1,0,1.2,1.1C179.7,35.1,179.8,35.5,179.8,35.9z"/>
<path class="st1" d="M322.9,41.3c-1.5,0-3,0-4.5,0c-0.6,0-0.6,0-0.5,0.6c0.2,2.7,2.1,4.5,4.9,4.5c1.3,0,2.5-0.1,3.7-0.6
	c0.3-0.1,0.5-0.1,0.5,0.3c0,0.3,0.1,0.5,0.2,0.8c0.2,0.7,0.2,0.7-0.5,1c-1.9,0.6-3.9,0.9-5.9,0.5c-2.5-0.5-4.2-1.9-5-4.3
	c-0.7-2.3-0.6-4.6,0.4-6.8c1.5-3.3,4.7-4.3,7.6-3.7c1.5,0.3,2.6,1.2,3.4,2.6c0.8,1.5,1.1,3.1,1,4.8c0,0.4-0.3,0.4-0.6,0.4
	C326,41.3,324.4,41.3,322.9,41.3z"/>
<path class="st1" d="M216,36.3c-0.2-0.4-0.3-0.8-0.4-1.2c-0.2-0.4,0-0.6,0.3-0.7c1.3-0.7,2.6-0.9,4-1c0.9,0,1.7,0,2.5,0.3
	c1.4,0.4,2.3,1.3,2.8,2.6c0.3,0.8,0.5,1.6,0.5,2.5c0,1.5,0,2.9,0,4.4c0,1.6,0,3.3,0.2,5c-0.7,0-1.4,0-2.1,0c-0.3,0-0.3-0.2-0.4-0.4
	c-0.1-0.4,0-0.9-0.2-1.3c-0.2,0.1-0.3,0.3-0.5,0.4c-1.6,1.5-3.4,2-5.5,1.4c-3.4-0.9-3.7-5.1-1.8-7.1c0.9-0.9,1.9-1.4,3.1-1.7
	c1.2-0.3,2.5-0.5,3.8-0.5c0.7,0,0.8,0,0.7-0.8c-0.2-1.8-1.1-2.7-2.9-2.8c-1.2-0.1-2.3,0.1-3.4,0.6C216.5,36.1,216.3,36.2,216,36.3z"
	/>
<path class="st1" d="M270.8,35.8c0.3-0.1,0.3-0.3,0.4-0.4c1.4-1.8,3.8-2.5,6-1.9c1.5,0.4,2.5,1.4,3.1,2.8c0.3,0.8,0.5,1.7,0.5,2.6
	c0,2.9,0,5.8,0,8.6c0,0.6,0,0.6-0.6,0.6c-0.6,0-1.1,0-1.7,0c-0.3,0-0.4-0.1-0.4-0.4c0-0.2,0-0.4,0-0.6c0-2.3,0-4.7,0-7
	c0-0.7,0-1.4-0.2-2.1c-0.6-2.2-2.7-3.1-4.7-2.2c-1.1,0.5-1.8,1.5-2.1,2.7C271,39,271,39.5,271,40c0,2.5,0,5,0,7.5
	c0,0.6,0,0.6-0.7,0.6c-0.5,0-0.9,0-1.4,0c-0.6,0-0.6,0-0.6-0.6c0-3.5,0-7,0-10.6c0-0.9-0.1-1.8-0.1-2.7c0-0.6,0-0.6,0.6-0.6
	c0.4,0,0.9,0,1.3,0c0.3,0,0.5,0.1,0.5,0.4C270.7,34.7,270.6,35.2,270.8,35.8z"/>
<path class="st1" d="M294.5,29.5c0,1.1,0,2.1,0,3.1c0,0.2,0,0.4,0,0.6c0,0.4,0.1,0.5,0.5,0.5c0.9,0,1.8,0,2.6,0c0.7,0,0.7,0,0.7,0.7
	c0,1.3,0,1.3-1.3,1.3c-0.7,0-1.3,0-2,0c-0.3,0-0.5,0-0.5,0.4c0,2.6,0,5.1,0,7.7c0,0.4,0.1,0.9,0.2,1.3c0.3,0.7,0.8,1.1,1.5,1.2
	c0.5,0,1.1,0,1.6-0.1c0.3,0.6,0.2,1.2,0.2,1.8c0,0.2-0.2,0.3-0.3,0.3c-1.3,0.3-2.5,0.4-3.8-0.1c-1.2-0.5-1.7-1.4-2-2.6
	c-0.1-0.7-0.2-1.4-0.2-2.1c0-2.4,0-4.7,0-7.1c0-0.6,0-0.6-0.6-0.7c-0.1,0-0.2,0-0.2,0c-0.4,0-1.1,0.2-1.3-0.1
	c-0.3-0.4-0.1-1.1-0.1-1.6c0-0.3,0.2-0.3,0.4-0.3c0.5,0,1,0,1.4,0c0.3,0,0.4-0.1,0.4-0.4c0-0.8,0-1.7,0-2.5c0-0.5,0.2-0.7,0.6-0.7
	C293.2,29.9,293.8,29.7,294.5,29.5z"/>
<path class="st2" d="M195.9,37.5c0,3.3,0,6.6,0,9.9c0,0.7,0,0.7-0.7,0.7c-0.5,0-1.1,0-1.6,0c-0.3,0-0.4-0.1-0.4-0.4
	c0-0.2,0-0.3,0-0.5c0-6.5,0-13.1,0-19.6c0-0.1,0-0.1,0-0.2c0-0.7-0.1-0.7,0.7-0.7c0.5,0,1.1,0,1.6,0c0.3,0,0.4,0.1,0.4,0.4
	c0,0.2,0,0.4,0,0.6C195.9,31,195.9,34.3,195.9,37.5z"/>
<path class="st0" d="M160.4,80.2c0-1.3,0-2.5,0.3-3.7c0.8-2.9,3-4.8,5.9-5.1c2.2-0.2,4,0.5,5.4,2.3c1.1,1.3,1.7,2.9,1.9,4.6
	c0.3,2.2,0.1,4.3-0.7,6.4c-0.9,2.1-2.4,3.6-4.7,4.1c-3.5,0.8-7-1.3-7.8-4.8C160.4,82.6,160.4,81.4,160.4,80.2z"/>
<path class="st0" d="M201.3,79.7c-0.1,1.7-0.2,3.2-0.8,4.6c-0.9,2.2-2.4,3.7-4.7,4.2c-4.1,0.9-7.9-1.9-8.1-6.1c-0.1-1.5-0.1-3,0-4.5
	c0.3-4,3.2-6.4,6.1-6.7c2.4-0.2,4.3,0.6,5.7,2.5c1,1.3,1.4,2.7,1.6,4.3C201.3,78.7,201.3,79.3,201.3,79.7z"/>
<path class="st0" d="M133.3,78.1c1.6-5.1,3.5-9.9,4.8-15c1.3,5.1,3.2,10,4.9,15C139.7,78.1,136.6,78.1,133.3,78.1z"/>
<path class="st0" d="M262.8,80c0-2,0.3-3.8,1.3-5.5c1.8-3.3,5.2-3.9,7.8-3.1c1.4,0.4,2.4,1.3,3.2,2.5c1,1.4,1.5,3,1.7,4.6
	c0.3,2.2,0,4.3-0.9,6.3c-0.8,1.7-2,3-3.8,3.7c-2.6,1-5.6,0.2-7.4-2.1c-1.2-1.5-1.7-3.3-1.9-5.3C262.8,80.7,262.8,80.4,262.8,80z"/>
<path class="st0" d="M304.1,77.7c0.3-2.2,1.1-4.2,2.9-5.6c3.5-2.8,8.4-0.9,9.3,3.5c0.1,0.5,0.2,1,0.2,1.6c0,0.5,0,0.5-0.5,0.5
	c-2.9,0-5.7,0-8.6,0C306.2,77.7,305.2,77.7,304.1,77.7z"/>
<path class="st0" d="M123.7,38c0-2.5,0-4.9,0-7.4c0-0.4,0.1-0.6,0.5-0.7c1.8-0.2,3.6-0.3,5.4,0.2c3.1,0.8,5,3,5.3,6.3
	c0.1,1.4,0.1,2.7-0.3,4c-0.8,3-2.7,4.8-5.7,5.5c-1.5,0.3-3.1,0.3-4.6,0.2c-0.6,0-0.6-0.1-0.6-0.7C123.7,43,123.7,40.5,123.7,38z"/>
<path class="st0" d="M239.1,40.8c0,0.6,0,1.1,0,1.7c-0.1,1.8-1.4,3.4-3.1,3.7c-1.9,0.4-3.6-0.4-4.4-2.2c-1-2.2-1-4.4,0.2-6.5
	c0.9-1.7,2.7-2.4,4.5-2c1.7,0.4,2.8,1.9,2.9,3.8C239.2,39.8,239.2,40.3,239.1,40.8C239.1,40.8,239.1,40.8,239.1,40.8z"/>
<path class="st0" d="M151,40.9c0,1.2-0.2,2.3-0.8,3.4c-0.8,1.4-2,2.2-3.6,2.2c-1.6,0-2.8-0.8-3.5-2.2c-1.2-2.3-1.1-4.6,0.1-6.9
	c1.4-2.6,5.5-2.8,7.1,0.1C150.7,38.4,151,39.6,151,40.9z"/>
<path class="st0" d="M263,40.9c0,1.2-0.3,2.4-0.9,3.5c-1.7,2.7-5.3,2.8-7,0c-1.4-2.4-1.3-4.9,0.1-7.2c1.5-2.5,5.4-2.6,6.9,0.1
	C262.7,38.3,263,39.5,263,40.9z"/>
<path class="st0" d="M205.5,35.3c1.7,0,2.8,0.6,3.5,1.7c1.4,2,1.5,5.3,0.1,7.4c-1.7,2.7-5.3,2.7-6.9,0c-1.4-2.4-1.3-4.8,0.1-7.2
	C203,35.9,204.3,35.3,205.5,35.3z"/>
<path class="st0" d="M317.9,39.3c0.1-0.9,0.4-1.8,1-2.5c1-1.4,2.8-2,4.4-1.4c1.4,0.5,2.5,2.3,2.3,3.7c0,0.2-0.1,0.3-0.3,0.3
	c-0.1,0-0.2,0-0.3,0c-2.2,0-4.3,0-6.5,0C318.3,39.4,318.1,39.5,317.9,39.3z"/>
<path class="st0" d="M223.2,42.2c0,0.3,0,0.5,0,0.8c0,2.3-2.2,3.9-4.4,3.4c-0.7-0.2-1.3-0.7-1.5-1.4c-0.5-1.3,0-2.7,1.2-3.5
	c0.7-0.4,1.4-0.6,2.1-0.7c0.7-0.1,1.4-0.1,2.1-0.2c0.3,0,0.5,0.1,0.5,0.4C223.1,41.5,223.2,41.8,223.2,42.2z"/>
</svg>
