<?xml version="1.0" encoding="iso-8859-1"?>
<!-- Generator: Adobe Illustrator 19.0.0, SVG Export Plug-In . SVG Version: 6.00 Build 0)  -->
<svg version="1.1" id="Layer_1" xmlns="http://www.w3.org/2000/svg" xmlns:xlink="http://www.w3.org/1999/xlink" x="0px" y="0px"
	 viewBox="0 0 512 512" style="enable-background:new 0 0 512 512;" xml:space="preserve">
<circle style="fill:#ADECF7;" cx="256" cy="256" r="256"/>
<rect x="100.702" y="36.065" style="fill:#353F49;" width="310.602" height="439.263"/>
<rect x="121.915" y="66.065" style="fill:#FFFFFF;" width="268.156" height="379.243"/>
<g>
	<path style="fill:#D9D8D7;" d="M278.971,42.483c0-12.688-10.286-23-22.977-23c-12.684,0-22.971,10.313-22.971,23h-29.078v47.177
		h104.108V42.483H278.971z M255.993,34.671c4.311,0,7.832,3.501,7.832,7.812c0,4.307-3.521,7.789-7.832,7.789
		c-4.324,0-7.825-3.485-7.825-7.789C248.168,38.172,251.669,34.671,255.993,34.671z"/>
	<path style="fill:#D9D8D7;" d="M278.971,42.483c0-12.688-10.286-23-22.977-23c-12.684,0-22.971,10.313-22.971,23h-29.078v23.582
		h104.108V42.483H278.971z M255.993,34.671c4.311,0,7.832,3.501,7.832,7.812c0,4.307-3.521,7.789-7.832,7.789
		c-4.324,0-7.825-3.485-7.825-7.789C248.168,38.172,251.669,34.671,255.993,34.671z"/>
</g>
<rect x="203.944" y="61.146" style="fill:#FFFFFF;" width="104.108" height="4.919"/>
<rect x="203.944" y="66.065" style="fill:#CCCBCA;" width="104.108" height="4.935"/>
<polygon style="fill:#FF916E;" points="255.98,232.54 220.252,196.829 255.98,161.098 291.705,196.829 "/>
<g>
	<polygon style="fill:#CCCBCA;" points="305.826,243.51 305.826,150.105 326.454,150.105 326.454,154.436 310.173,154.436 
		310.173,239.167 326.454,239.167 326.454,243.51 	"/>
	<rect x="307.993" y="194.652" style="fill:#CCCBCA;" width="18.465" height="4.314"/>
</g>
<rect x="289.561" y="194.652" style="fill:#D9D8D7;" width="18.435" height="4.337"/>
<g>
	<polygon style="fill:#CCCBCA;" points="185.536,243.51 185.536,239.167 201.827,239.167 201.827,154.436 185.536,154.436 
		185.536,150.105 206.151,150.105 206.151,243.51 	"/>
	<rect x="185.542" y="194.652" style="fill:#CCCBCA;" width="18.468" height="4.314"/>
</g>
<rect x="204.004" y="194.652" style="fill:#D9D8D7;" width="18.449" height="4.337"/>
<g>
	<polygon style="fill:#CCCBCA;" points="223.529,336.685 223.529,312.013 288.448,312.013 288.448,336.685 284.137,336.685 
		284.137,316.33 227.847,316.33 227.847,336.685 	"/>
	<rect x="253.84" y="291.675" style="fill:#CCCBCA;" width="4.311" height="22.508"/>
	<rect x="253.84" y="230.367" style="fill:#CCCBCA;" width="4.311" height="28.86"/>
</g>
<rect x="208.367" y="259.204" style="fill:#92DEEB;" width="95.268" height="34.638"/>
<g>
	<path style="fill:#CCCBCA;" d="M208.354,334.518v34.638h34.657v-34.638H208.354z M238.698,364.838h-26.02v-26h26.02V364.838z"/>
	<path style="fill:#CCCBCA;" d="M268.985,334.518v34.638h34.638v-34.638H268.985z M299.295,364.838h-25.993v-26h25.993V364.838z"/>
	<path style="fill:#CCCBCA;" d="M153.062,224.025v34.641h34.628v-34.641H153.062z M183.375,254.338h-25.986v-26h25.986V254.338z"/>
	<path style="fill:#CCCBCA;" d="M153.062,179.484v34.648h34.628v-34.648H153.062z M183.375,209.801h-25.986v-26.013h25.986V209.801z
		"/>
	<path style="fill:#CCCBCA;" d="M153.062,134.94v34.644h34.628V134.94H153.062z M183.375,165.27h-25.986v-26.013h25.986V165.27z"/>
	<path style="fill:#CCCBCA;" d="M324.284,224.025v34.641h34.641v-34.641H324.284z M354.614,254.338h-26.01v-26h26.006v26H354.614z"
		/>
	<path style="fill:#CCCBCA;" d="M324.284,179.484v34.648h34.641v-34.648H324.284z M354.614,209.801h-26.01v-26.013h26.006v26.013
		H354.614z"/>
	<path style="fill:#CCCBCA;" d="M324.284,134.94v34.644h34.641V134.94H324.284z M354.614,165.27h-26.01v-26.013h26.006v26.013
		H354.614z"/>
</g>
<rect x="153.071" y="98.942" style="fill:#F77B55;" width="205.857" height="18.515"/>
<g>
	<rect x="153.071" y="386.61" style="fill:#656A73;" width="205.857" height="6.174"/>
	<rect x="153.071" y="402.069" style="fill:#656A73;" width="205.857" height="6.18"/>
	<rect x="153.071" y="417.495" style="fill:#656A73;" width="102.929" height="6.187"/>
</g>
<polygon style="fill:#FFFFFF;" points="466.449,229.696 457.107,198.986 447.759,229.696 "/>
<polygon style="fill:#CCCBCA;" points="457.107,198.986 466.449,229.696 460.582,229.696 "/>
<rect x="447.752" y="229.706" style="fill:#FF916E;" width="18.69" height="219.565"/>
<rect x="460.569" y="229.706" style="fill:#EE643C;" width="5.867" height="219.565"/>
<polygon style="fill:#353F49;" points="460.76,211.003 457.107,198.986 453.434,211.003 "/>
<polygon style="fill:#232E38;" points="460.76,211.003 457.107,198.986 458.465,211.003 "/>
<rect x="447.752" y="449.272" style="fill:#E6E5E5;" width="18.69" height="10.835"/>
<rect x="460.569" y="449.272" style="fill:#CCCBCA;" width="5.867" height="10.835"/>
<path style="fill:#474F59;" d="M447.759,460.093v5.886c0,2.398,0.908,4.776,2.738,6.606c1.82,1.827,4.218,2.742,6.606,2.742
	c2.395,0,4.786-0.915,6.613-2.742c1.82-1.83,2.732-4.208,2.732-6.606v-5.886H447.759z"/>
<path style="fill:#232E38;" d="M460.582,460.093c0,2.405-0.915,4.793-2.742,6.613c-1.833,1.823-4.215,2.742-6.606,2.742
	c-1.014,0-1.995-0.188-2.96-0.519c0.446,1.325,1.169,2.613,2.226,3.657c1.82,1.827,4.218,2.742,6.606,2.742
	c2.395,0,4.786-0.915,6.613-2.742c1.82-1.83,2.732-4.208,2.732-6.606v-5.886H460.582z"/>
<g>
</g>
<g>
</g>
<g>
</g>
<g>
</g>
<g>
</g>
<g>
</g>
<g>
</g>
<g>
</g>
<g>
</g>
<g>
</g>
<g>
</g>
<g>
</g>
<g>
</g>
<g>
</g>
<g>
</g>
</svg>
