<?xml version="1.0" encoding="iso-8859-1"?>
<!-- Generator: Adobe Illustrator 19.0.0, SVG Export Plug-In . SVG Version: 6.00 Build 0)  -->
<svg version="1.1" id="Layer_1" xmlns="http://www.w3.org/2000/svg" xmlns:xlink="http://www.w3.org/1999/xlink" x="0px" y="0px"
	 viewBox="0 0 332.792 332.792" style="enable-background:new 0 0 332.792 332.792;" xml:space="preserve">
<g>
	<circle style="fill:#E5AB46;" cx="64.662" cy="51.172" r="51.172"/>
	<circle style="fill:#FED771;" cx="64.663" cy="51.172" r="40.231"/>
	<path style="fill:#99DAEA;" d="M315.688,57.972c6.518-7.089,3.974-12.89-5.657-12.89H58.573c-9.632,0-12.177,5.8-5.658,12.89
		l119.533,129.974c6.52,7.089,17.189,7.089,23.708,0L315.688,57.972z"/>
	<rect x="170.141" y="176.568" style="fill:#99DAEA;" width="28.323" height="139.391"/>
	<path style="fill:#6FD1E6;" d="M208.88,311.959c5.753,0,10.417,4.664,10.417,10.417c0,5.752-4.664,10.416-10.417,10.416h-49.156
		c-5.752,0-10.416-4.664-10.416-10.416c0-5.753,4.664-10.417,10.416-10.417L208.88,311.959L208.88,311.959z"/>
	
		<rect x="257.092" y="-10.773" transform="matrix(-0.7361 -0.6769 0.6769 -0.7361 422.2857 273.5218)" style="fill:#6FD1E6;" width="14.745" height="130.422"/>
	<path style="fill:#A13838;" d="M103.592,81.955l70.014,76.129c5.882,6.397,15.509,6.397,21.392,0l70.011-76.129H103.592z"/>
	<polygon style="opacity:0.5;fill:#C4E9F2;enable-background:new    ;" points="187.796,45.083 111.358,121.52 135.045,147.276 
		237.238,45.083 	"/>
</g>
<g>
</g>
<g>
</g>
<g>
</g>
<g>
</g>
<g>
</g>
<g>
</g>
<g>
</g>
<g>
</g>
<g>
</g>
<g>
</g>
<g>
</g>
<g>
</g>
<g>
</g>
<g>
</g>
<g>
</g>
</svg>
