<?xml version="1.0" encoding="iso-8859-1"?>
<!-- Generator: Adobe Illustrator 19.0.0, SVG Export Plug-In . SVG Version: 6.00 Build 0)  -->
<svg version="1.1" id="Layer_1" xmlns="http://www.w3.org/2000/svg" xmlns:xlink="http://www.w3.org/1999/xlink" x="0px" y="0px"
	 viewBox="0 0 512.002 512.002" style="enable-background:new 0 0 512.002 512.002;" xml:space="preserve">
<path style="fill:#DF6246;" d="M418.91,201.923c-7.464-3.556-15.239-6.555-23.273-8.954c-7.543-2.254-15.317-3.973-23.273-5.117
	c-7.604-1.092-15.371-1.669-23.273-1.669c-64.856,0-120.976,38.102-147.171,93.091c-3.555,7.464-6.554,15.241-8.952,23.273
	c-2.254,7.543-3.973,15.317-5.117,23.273c-1.092,7.604-1.669,15.371-1.669,23.273c0,89.828,73.079,162.909,162.909,162.909
	c89.828,0,162.909-73.081,162.909-162.909C512.001,284.234,473.9,228.115,418.91,201.923z M323.99,403.363
	c-3.969,2.644-8.453,3.911-12.89,3.911c-7.522,0.002-14.901-3.637-19.385-10.364l-23.273-34.906
	c-5.212-7.818-5.212-18.002-0.002-25.819l23.273-34.912c7.131-10.698,21.578-13.587,32.275-6.457
	c10.695,7.131,13.585,21.578,6.456,32.273l-14.668,22.004l14.667,21.997C337.573,381.783,334.684,396.234,323.99,403.363z
	 M417.081,403.363c-3.969,2.644-8.453,3.911-12.89,3.911c-7.522,0.002-14.901-3.637-19.385-10.364l-23.273-34.906
	c-5.212-7.818-5.212-18.002-0.002-25.819l23.273-34.912c7.131-10.698,21.58-13.587,32.275-6.457
	c10.695,7.131,13.585,21.578,6.456,32.273l-14.668,22.004l14.667,21.997C430.664,381.783,427.775,396.234,417.081,403.363z"/>
<path style="fill:#F6E27D;" d="M418.908,23.229c0.012,7.204-3.325,14.173-9.308,18.662l-13.964,10.473l-23.273,17.455
	L223.419,181.527c-4.138,3.103-9.05,4.655-13.964,4.655s-9.826-1.552-13.964-4.655L46.546,69.818L23.274,52.364L9.31,41.891
	c-5.983-4.49-9.32-11.459-9.308-18.662c0,0.014-0.002,0.029-0.002,0.043v279.273c0,12.853,10.42,23.273,23.273,23.273h164.579
	c1.143-7.956,2.863-15.729,5.117-23.273c2.4-8.032,5.398-15.808,8.952-23.273c2.284-4.796,4.81-9.452,7.534-13.974
	c28.526-47.36,80.435-79.116,139.636-79.116c7.902,0,15.669,0.577,23.273,1.669c7.956,1.143,15.729,2.863,23.273,5.117
	c8.034,2.4,15.808,5.398,23.273,8.954V23.273C418.91,23.259,418.908,23.243,418.908,23.229z"/>
<path style="fill:#F2D23D;" d="M418.8,21.077c-0.022-0.219-0.054-0.434-0.082-0.652c-0.057-0.476-0.129-0.948-0.216-1.415
	c-0.053-0.289-0.112-0.573-0.175-0.861c-0.088-0.391-0.191-0.776-0.298-1.161c-0.087-0.303-0.164-0.607-0.264-0.908
	c-0.019-0.056-0.029-0.113-0.048-0.168c-0.119-0.357-0.262-0.701-0.397-1.049c-0.137-0.352-0.275-0.7-0.425-1.043
	c-0.222-0.493-0.451-0.985-0.703-1.46c-0.121-0.227-0.254-0.442-0.382-0.667c-0.225-0.385-0.451-0.77-0.694-1.142
	c-0.14-0.213-0.285-0.419-0.428-0.627c-0.267-0.379-0.545-0.748-0.832-1.111c-0.14-0.177-0.279-0.355-0.422-0.528
	c-0.36-0.428-0.739-0.841-1.129-1.241c-0.088-0.092-0.168-0.185-0.256-0.273c-0.484-0.481-0.987-0.937-1.51-1.373
	c-0.154-0.127-0.313-0.242-0.47-0.366c-0.374-0.296-0.754-0.585-1.147-0.858c-0.222-0.155-0.447-0.299-0.673-0.447
	c-0.348-0.227-0.701-0.438-1.061-0.644c-0.247-0.143-0.493-0.285-0.748-0.419c-0.388-0.203-0.788-0.391-1.192-0.573
	c-0.223-0.102-0.442-0.216-0.67-0.309c-0.597-0.248-1.207-0.47-1.829-0.67c-0.253-0.082-0.514-0.146-0.771-0.219
	c-0.417-0.119-0.841-0.233-1.269-0.327c-0.271-0.061-0.546-0.115-0.821-0.166c-0.456-0.082-0.915-0.152-1.381-0.209
	c-0.24-0.031-0.479-0.064-0.721-0.088C397.078,0.043,396.363,0,395.637,0H209.455H23.274c-0.726,0-1.441,0.043-2.149,0.107
	c-0.242,0.025-0.481,0.057-0.721,0.088c-0.465,0.057-0.925,0.127-1.381,0.209c-0.276,0.051-0.549,0.106-0.821,0.166
	c-0.428,0.095-0.85,0.206-1.269,0.326c-0.258,0.074-0.518,0.138-0.773,0.22c-0.619,0.2-1.23,0.42-1.828,0.67
	c-0.227,0.093-0.445,0.205-0.669,0.309c-0.403,0.182-0.804,0.369-1.192,0.573c-0.253,0.133-0.5,0.276-0.748,0.419
	c-0.358,0.206-0.714,0.419-1.061,0.644c-0.225,0.146-0.451,0.292-0.673,0.445C9.597,4.45,9.217,4.738,8.843,5.035
	c-0.157,0.124-0.317,0.239-0.47,0.366C7.851,5.838,7.347,6.294,6.865,6.774C6.776,6.862,6.696,6.955,6.609,7.047
	c-0.391,0.4-0.766,0.811-1.13,1.241C5.335,8.459,5.195,8.639,5.056,8.817c-0.287,0.36-0.565,0.729-0.829,1.108
	c-0.146,0.208-0.292,0.416-0.431,0.63c-0.242,0.371-0.469,0.756-0.694,1.14c-0.127,0.225-0.261,0.439-0.382,0.667
	c-0.251,0.475-0.483,0.967-0.703,1.46c-0.152,0.343-0.29,0.69-0.427,1.043c-0.135,0.348-0.278,0.69-0.397,1.049
	c-0.019,0.054-0.029,0.112-0.048,0.168c-0.098,0.301-0.177,0.605-0.264,0.908c-0.107,0.385-0.211,0.77-0.298,1.161
	c-0.064,0.289-0.123,0.573-0.175,0.861c-0.087,0.467-0.158,0.939-0.216,1.415c-0.028,0.217-0.061,0.433-0.082,0.652
	c-0.067,0.709-0.107,1.427-0.109,2.152C-0.01,30.431,3.327,37.401,9.31,41.891l13.964,10.473l23.273,17.455l148.945,111.709
	c4.138,3.103,9.05,4.655,13.964,4.655s9.826-1.552,13.964-4.655L372.364,69.818l23.273-17.455l13.964-10.473
	c5.983-4.49,9.32-11.459,9.308-18.662C418.907,22.505,418.866,21.786,418.8,21.077z"/>
<g>
	<path style="fill:#671F03;" d="M315.776,349.092l14.668-22.004c7.129-10.695,4.237-25.142-6.456-32.273
		c-10.696-7.129-25.144-4.239-32.275,6.457l-23.273,34.912c-5.21,7.817-5.21,18.001,0.002,25.819l23.273,34.906
		c4.485,6.727,11.864,10.366,19.385,10.364c4.436,0,8.921-1.266,12.89-3.911c10.695-7.131,13.584-21.58,6.453-32.275
		L315.776,349.092z"/>
	<path style="fill:#671F03;" d="M408.867,349.092l14.668-22.004c7.129-10.695,4.239-25.142-6.456-32.273
		c-10.695-7.129-25.144-4.239-32.275,6.457l-23.273,34.912c-5.21,7.817-5.21,18.001,0.002,25.819l23.273,34.906
		c4.485,6.727,11.864,10.366,19.385,10.364c4.436,0,8.921-1.266,12.89-3.911c10.695-7.131,13.583-21.58,6.453-32.275
		L408.867,349.092z"/>
</g>
<path style="fill:#F5DC60;" d="M195.492,181.527L46.546,69.818L23.274,52.364L9.31,41.891c-5.983-4.49-9.32-11.459-9.308-18.662
	c0,0.014-0.002,0.029-0.002,0.043v279.273c0,12.853,10.42,23.273,23.273,23.273h164.579c1.143-7.956,2.863-15.729,5.117-23.273
	c2.4-8.032,5.398-15.808,8.952-23.273c2.284-4.796,4.81-9.452,7.534-13.974v-79.116C204.542,186.182,199.63,184.63,195.492,181.527z
	"/>
<path style="fill:#EEBF00;" d="M9.31,41.891l13.964,10.473l23.273,17.455l148.945,111.709c4.138,3.103,9.05,4.655,13.964,4.655V0
	H23.274c-0.726,0-1.441,0.043-2.149,0.107c-0.242,0.025-0.481,0.057-0.721,0.088c-0.465,0.057-0.925,0.127-1.381,0.209
	c-0.276,0.051-0.549,0.106-0.821,0.168c-0.428,0.093-0.85,0.206-1.269,0.326c-0.258,0.074-0.518,0.138-0.773,0.22
	c-0.619,0.2-1.23,0.42-1.828,0.67c-0.227,0.092-0.445,0.203-0.669,0.307c-0.403,0.182-0.804,0.369-1.192,0.573
	c-0.253,0.133-0.5,0.276-0.748,0.419c-0.358,0.206-0.714,0.419-1.061,0.644c-0.225,0.146-0.451,0.292-0.673,0.445
	C9.597,4.45,9.217,4.738,8.843,5.035c-0.157,0.124-0.317,0.239-0.47,0.366C7.851,5.838,7.347,6.294,6.865,6.774
	C6.776,6.862,6.696,6.955,6.609,7.047c-0.391,0.4-0.766,0.811-1.13,1.241C5.335,8.459,5.195,8.639,5.056,8.817
	c-0.287,0.36-0.565,0.729-0.829,1.109c-0.146,0.206-0.292,0.414-0.431,0.628c-0.242,0.371-0.469,0.756-0.694,1.14
	c-0.127,0.225-0.261,0.439-0.382,0.667c-0.251,0.475-0.483,0.967-0.703,1.46c-0.152,0.343-0.29,0.69-0.427,1.043
	c-0.135,0.348-0.278,0.69-0.397,1.049c-0.019,0.054-0.029,0.112-0.048,0.168c-0.098,0.301-0.177,0.605-0.264,0.908
	c-0.107,0.385-0.211,0.77-0.298,1.161c-0.064,0.289-0.123,0.573-0.175,0.861c-0.087,0.467-0.158,0.94-0.216,1.415
	c-0.028,0.217-0.061,0.433-0.082,0.652c-0.067,0.709-0.107,1.427-0.109,2.152C-0.01,30.431,3.327,37.401,9.31,41.891z"/>
<path style="fill:#DD512A;" d="M201.921,279.273c-3.555,7.464-6.554,15.241-8.952,23.273c-2.254,7.543-3.973,15.317-5.117,23.273
	c-1.092,7.604-1.669,15.371-1.669,23.273c0,89.828,73.079,162.909,162.909,162.909V186.182
	C284.235,186.182,228.115,224.284,201.921,279.273z M268.442,336.187l23.273-34.912c7.131-10.698,21.578-13.587,32.275-6.457
	c10.695,7.131,13.585,21.578,6.456,32.273l-14.668,22.004l14.666,21.997c7.131,10.695,4.24,25.144-6.453,32.275
	c-3.969,2.644-8.453,3.911-12.89,3.911c-7.522,0.002-14.901-3.637-19.385-10.364l-23.273-34.906
	C263.231,354.186,263.231,344.003,268.442,336.187z"/>
<g>
</g>
<g>
</g>
<g>
</g>
<g>
</g>
<g>
</g>
<g>
</g>
<g>
</g>
<g>
</g>
<g>
</g>
<g>
</g>
<g>
</g>
<g>
</g>
<g>
</g>
<g>
</g>
<g>
</g>
</svg>
