<?xml version="1.0" encoding="iso-8859-1"?>
<!-- Generator: Adobe Illustrator 19.0.0, SVG Export Plug-In . SVG Version: 6.00 Build 0)  -->
<svg version="1.1" id="Layer_1" xmlns="http://www.w3.org/2000/svg" xmlns:xlink="http://www.w3.org/1999/xlink" x="0px" y="0px"
	 viewBox="0 0 511.999 511.999" style="enable-background:new 0 0 511.999 511.999;" xml:space="preserve">
<path style="fill:#57A4FF;" d="M488.726,511.999c-5.956,0-11.913-2.273-16.455-6.817l-80.634-80.632
	c-9.089-9.089-9.089-23.823,0-32.914c9.087-9.087,23.823-9.087,32.912,0l80.634,80.634c9.089,9.087,9.089,23.823,0,32.912
	C500.638,509.727,494.682,511.999,488.726,511.999z"/>
<circle style="fill:#BDFDFF;" cx="325.817" cy="325.818" r="116.363"/>
<path style="fill:#9BC9FF;" d="M325.811,465.454c-76.995,0-139.636-62.641-139.636-139.636s62.641-139.636,139.636-139.636
	s139.636,62.641,139.636,139.636S402.806,465.454,325.811,465.454z M325.811,232.727c-51.33,0-93.091,41.76-93.091,93.091
	s41.76,93.091,93.091,93.091s93.091-41.76,93.091-93.091S377.141,232.727,325.811,232.727z"/>
<path style="fill:#F6E27D;" d="M418.906,23.23c0.011,7.204-3.325,14.175-9.307,18.662l-13.964,10.473l-23.273,17.454
	L223.418,181.527c-4.138,3.103-9.05,4.655-13.964,4.655c-4.914,0-9.826-1.551-13.964-4.655L46.545,69.818L23.273,52.364
	L9.309,41.891C3.326,37.403-0.009,30.432,0.002,23.23C0.002,23.245,0,23.259,0,23.273v279.272c0,12.853,10.42,23.273,23.273,23.273
	h162.902c0-7.928,0.675-15.701,1.95-23.273c1.348-8.007,3.382-15.787,6.037-23.273c3.848-10.853,9.022-21.077,15.292-30.517
	c25.032-37.675,67.832-62.574,116.357-62.574c16.317,0,31.983,2.822,46.552,7.989c8.127,2.881,15.914,6.492,23.273,10.76
	c8.341,4.836,16.134,10.513,23.273,16.91V23.273C418.908,23.259,418.906,23.245,418.906,23.23z"/>
<path style="fill:#F2D23D;" d="M418.798,21.078c-0.022-0.219-0.054-0.433-0.081-0.652c-0.059-0.476-0.13-0.948-0.217-1.417
	c-0.053-0.287-0.112-0.571-0.175-0.856c-0.088-0.394-0.192-0.782-0.299-1.17c-0.085-0.299-0.163-0.6-0.261-0.898
	c-0.019-0.056-0.031-0.115-0.05-0.171c-0.121-0.365-0.267-0.715-0.405-1.071c-0.13-0.332-0.261-0.664-0.403-0.988
	c-0.225-0.507-0.461-1.007-0.721-1.496c-0.118-0.223-0.25-0.436-0.375-0.655c-0.223-0.391-0.455-0.779-0.7-1.154
	c-0.137-0.209-0.281-0.416-0.424-0.621c-0.267-0.38-0.546-0.754-0.836-1.119c-0.138-0.174-0.275-0.352-0.419-0.521
	c-0.363-0.43-0.742-0.846-1.136-1.249c-0.085-0.088-0.164-0.182-0.248-0.267c-0.484-0.481-0.99-0.937-1.513-1.375
	c-0.152-0.126-0.309-0.239-0.464-0.362c-0.375-0.296-0.757-0.586-1.151-0.861c-0.222-0.155-0.447-0.299-0.673-0.447
	c-0.349-0.225-0.703-0.438-1.061-0.644c-0.247-0.143-0.493-0.285-0.748-0.419c-0.388-0.203-0.788-0.391-1.192-0.573
	c-0.223-0.102-0.442-0.216-0.67-0.309c-0.597-0.248-1.207-0.47-1.829-0.67c-0.253-0.082-0.514-0.146-0.771-0.22
	c-0.419-0.118-0.841-0.231-1.269-0.326c-0.272-0.061-0.546-0.115-0.821-0.166c-0.456-0.084-0.915-0.152-1.381-0.209
	c-0.24-0.031-0.479-0.064-0.721-0.088C397.077,0.045,396.361,0,395.635,0H209.454H23.273c-0.726,0-1.441,0.043-2.149,0.107
	c-0.242,0.025-0.479,0.057-0.721,0.088c-0.465,0.057-0.925,0.126-1.381,0.209c-0.276,0.051-0.549,0.106-0.821,0.166
	c-0.428,0.095-0.85,0.208-1.269,0.326c-0.258,0.074-0.518,0.138-0.773,0.22c-0.619,0.2-1.23,0.42-1.828,0.67
	c-0.227,0.093-0.445,0.205-0.669,0.309c-0.403,0.182-0.804,0.369-1.192,0.573c-0.253,0.133-0.5,0.276-0.748,0.419
	c-0.358,0.205-0.712,0.419-1.061,0.644c-0.225,0.146-0.451,0.292-0.673,0.447C9.595,4.453,9.213,4.742,8.837,5.04
	C8.684,5.161,8.526,5.276,8.375,5.401c-0.524,0.438-1.03,0.894-1.513,1.373C6.777,6.86,6.698,6.953,6.614,7.041
	C6.22,7.445,5.841,7.86,5.477,8.29C5.334,8.461,5.198,8.639,5.058,8.813C4.768,9.176,4.49,9.548,4.223,9.93
	c-0.144,0.205-0.289,0.411-0.425,0.622c-0.245,0.374-0.475,0.762-0.7,1.153c-0.126,0.219-0.258,0.431-0.375,0.655
	c-0.261,0.489-0.496,0.988-0.721,1.496c-0.143,0.324-0.273,0.656-0.403,0.988c-0.138,0.355-0.284,0.706-0.405,1.071
	c-0.02,0.056-0.031,0.115-0.05,0.171c-0.098,0.298-0.175,0.599-0.261,0.898c-0.107,0.388-0.213,0.776-0.299,1.17
	c-0.064,0.285-0.123,0.569-0.175,0.856c-0.087,0.469-0.158,0.94-0.217,1.417c-0.026,0.219-0.059,0.433-0.081,0.652
	c-0.067,0.709-0.107,1.426-0.109,2.152c-0.011,7.202,3.325,14.175,9.308,18.662l13.964,10.473l23.273,17.454L195.49,181.527
	c4.138,3.103,9.05,4.655,13.964,4.655c4.914,0,9.826-1.551,13.964-4.655L372.363,69.818l23.273-17.454l13.964-10.473
	c5.983-4.489,9.318-11.459,9.307-18.662C418.905,22.504,418.864,21.787,418.798,21.078z"/>
<path style="fill:#BDFDFF;" d="M368.308,243.035c-12.75-6.571-27.19-10.308-42.497-10.308c-39.301,0-72.968,24.494-86.599,59.007
	c-4.174,10.564-6.492,22.055-6.492,34.084c0,51.33,41.76,93.091,93.091,93.091s93.091-41.76,93.091-93.091
	C418.902,289.793,398.318,258.504,368.308,243.035z"/>
<path style="fill:#F5DC60;" d="M195.49,181.527L46.545,69.818L23.273,52.364L9.309,41.891C3.326,37.403-0.009,30.432,0.002,23.23
	C0.002,23.245,0,23.259,0,23.273v279.272c0,12.853,10.42,23.273,23.273,23.273h162.902c0-7.928,0.675-15.701,1.95-23.273
	c1.348-8.007,3.382-15.787,6.037-23.273c3.848-10.853,9.022-21.077,15.292-30.517v-62.574
	C204.54,186.182,199.628,184.63,195.49,181.527z"/>
<path style="fill:#EEBF00;" d="M9.309,41.891l13.964,10.473l23.273,17.454L195.49,181.527c4.138,3.103,9.05,4.655,13.964,4.655V0
	H23.273c-0.726,0-1.441,0.043-2.149,0.107c-0.242,0.025-0.479,0.057-0.721,0.088c-0.465,0.057-0.925,0.126-1.381,0.209
	c-0.276,0.051-0.549,0.106-0.821,0.168c-0.428,0.093-0.85,0.208-1.269,0.326c-0.258,0.074-0.518,0.138-0.773,0.22
	c-0.619,0.2-1.23,0.422-1.828,0.67c-0.227,0.092-0.445,0.203-0.669,0.307c-0.403,0.182-0.804,0.369-1.192,0.573
	c-0.253,0.133-0.5,0.276-0.746,0.419c-0.358,0.206-0.714,0.419-1.061,0.644c-0.227,0.146-0.453,0.292-0.675,0.447
	C9.595,4.453,9.213,4.742,8.837,5.04C8.684,5.161,8.526,5.276,8.374,5.401C7.851,5.839,7.345,6.295,6.862,6.774
	C6.777,6.86,6.698,6.953,6.614,7.041C6.22,7.445,5.841,7.86,5.477,8.29C5.334,8.461,5.198,8.639,5.058,8.813
	C4.768,9.176,4.49,9.548,4.223,9.93c-0.144,0.205-0.289,0.411-0.425,0.622c-0.245,0.374-0.475,0.762-0.7,1.153
	c-0.126,0.219-0.258,0.433-0.375,0.655c-0.261,0.489-0.496,0.988-0.721,1.496c-0.143,0.324-0.273,0.656-0.403,0.988
	c-0.138,0.355-0.284,0.706-0.405,1.071c-0.02,0.056-0.033,0.115-0.05,0.171c-0.098,0.298-0.175,0.599-0.261,0.898
	c-0.107,0.388-0.213,0.776-0.299,1.17c-0.064,0.285-0.123,0.569-0.175,0.856c-0.087,0.469-0.158,0.94-0.217,1.417
	c-0.026,0.219-0.059,0.433-0.081,0.652c-0.067,0.709-0.107,1.426-0.109,2.152C-0.009,30.433,3.326,37.404,9.309,41.891z"/>
<g>
</g>
<g>
</g>
<g>
</g>
<g>
</g>
<g>
</g>
<g>
</g>
<g>
</g>
<g>
</g>
<g>
</g>
<g>
</g>
<g>
</g>
<g>
</g>
<g>
</g>
<g>
</g>
<g>
</g>
</svg>
