<?xml version="1.0" encoding="iso-8859-1"?>
<!-- Generator: Adobe Illustrator 19.0.0, SVG Export Plug-In . SVG Version: 6.00 Build 0)  -->
<svg version="1.1" id="Layer_1" xmlns="http://www.w3.org/2000/svg" xmlns:xlink="http://www.w3.org/1999/xlink" x="0px" y="0px"
	 viewBox="0 0 512.002 512.002" style="enable-background:new 0 0 512.002 512.002;" xml:space="preserve">
<path style="fill:#F072AE;" d="M418.91,201.922c-7.464-3.555-15.239-6.555-23.273-8.954c-7.543-2.253-15.317-3.975-23.273-5.117
	c-7.604-1.092-15.371-1.669-23.273-1.669c-64.856,0-120.976,38.101-147.171,93.091c-3.555,7.464-6.554,15.239-8.952,23.273
	c-2.254,7.543-3.973,15.317-5.117,23.273c-1.092,7.604-1.669,15.371-1.669,23.273c0,89.828,73.079,162.909,162.909,162.909
	c89.828,0,162.909-73.081,162.909-162.909C512.001,284.233,473.9,228.115,418.91,201.922z M412.092,365.546
	c-4.543,4.546-10.499,6.817-16.455,6.817c-5.956,0-11.913-2.271-16.455-6.817l-6.817-6.814v36.904
	c0,12.853-10.42,23.273-23.273,23.273s-23.273-10.42-23.273-23.273v-36.904l-6.817,6.816c-9.087,9.087-23.823,9.087-32.912,0
	c-9.089-9.087-9.089-23.823,0-32.912l46.545-46.547c0.025-0.025,0.053-0.045,0.079-0.07c0.518-0.515,1.061-1.005,1.624-1.469
	c0.279-0.227,0.571-0.427,0.856-0.639c0.323-0.24,0.638-0.49,0.971-0.715c0.34-0.227,0.689-0.42,1.036-0.627
	c0.304-0.183,0.604-0.375,0.918-0.545c0.351-0.186,0.711-0.348,1.071-0.514c0.33-0.158,0.655-0.321,0.995-0.464
	c0.348-0.143,0.701-0.258,1.053-0.385c0.365-0.13,0.726-0.27,1.098-0.385c0.351-0.105,0.707-0.182,1.063-0.273
	c0.38-0.096,0.757-0.203,1.145-0.279c0.41-0.082,0.822-0.13,1.235-0.188c0.34-0.048,0.673-0.113,1.018-0.149
	c0.763-0.074,1.528-0.115,2.295-0.115s1.531,0.04,2.295,0.115c0.346,0.034,0.68,0.099,1.018,0.149
	c0.413,0.057,0.825,0.105,1.235,0.188c0.388,0.076,0.765,0.183,1.145,0.279c0.355,0.092,0.712,0.166,1.063,0.273
	c0.372,0.115,0.734,0.254,1.098,0.385c0.352,0.127,0.706,0.242,1.053,0.385c0.34,0.143,0.664,0.306,0.995,0.464
	c0.36,0.166,0.72,0.327,1.071,0.514c0.315,0.168,0.614,0.36,0.918,0.545c0.348,0.206,0.697,0.402,1.036,0.627
	c0.334,0.225,0.649,0.475,0.971,0.715c0.285,0.213,0.577,0.413,0.856,0.639c0.563,0.464,1.106,0.954,1.624,1.469
	c0.026,0.025,0.054,0.045,0.079,0.07l46.545,46.547C421.183,341.723,421.183,356.459,412.092,365.546z"/>
<path style="fill:#741648;" d="M319.002,365.546l6.817-6.816v36.906c0,12.853,10.42,23.273,23.273,23.273
	s23.273-10.42,23.273-23.273v-36.904l6.817,6.816c4.544,4.546,10.501,6.817,16.455,6.817c5.956,0,11.913-2.271,16.455-6.817
	c9.089-9.087,9.089-23.823,0-32.912l-46.545-46.547c-0.025-0.025-0.053-0.045-0.079-0.07c-0.518-0.515-1.061-1.005-1.624-1.469
	c-0.279-0.227-0.571-0.427-0.856-0.639c-0.323-0.24-0.638-0.49-0.971-0.715c-0.34-0.225-0.689-0.42-1.036-0.627
	c-0.304-0.183-0.604-0.375-0.918-0.543c-0.351-0.186-0.711-0.348-1.069-0.514c-0.33-0.158-0.655-0.321-0.995-0.464
	c-0.348-0.143-0.701-0.258-1.053-0.385c-0.365-0.13-0.726-0.27-1.098-0.385c-0.351-0.105-0.707-0.182-1.063-0.273
	c-0.38-0.096-0.757-0.203-1.145-0.279c-0.41-0.082-0.822-0.13-1.235-0.188c-0.34-0.048-0.673-0.113-1.018-0.149
	c-0.762-0.076-1.527-0.116-2.293-0.116s-1.531,0.04-2.296,0.115c-0.346,0.034-0.678,0.099-1.018,0.149
	c-0.413,0.057-0.825,0.105-1.235,0.188c-0.388,0.076-0.765,0.183-1.145,0.279c-0.355,0.092-0.712,0.166-1.063,0.273
	c-0.372,0.115-0.734,0.254-1.098,0.385c-0.352,0.127-0.706,0.242-1.053,0.385c-0.34,0.143-0.664,0.306-0.995,0.464
	c-0.36,0.166-0.72,0.327-1.069,0.514c-0.315,0.168-0.614,0.36-0.918,0.543c-0.348,0.206-0.697,0.402-1.036,0.627
	c-0.334,0.225-0.649,0.475-0.971,0.715c-0.285,0.213-0.577,0.413-0.856,0.639c-0.563,0.464-1.106,0.954-1.624,1.469
	c-0.026,0.025-0.054,0.045-0.079,0.07l-46.545,46.547c-9.089,9.087-9.089,23.824,0,32.912
	C295.178,374.635,309.914,374.635,319.002,365.546z"/>
<path style="fill:#F6E27D;" d="M418.908,23.231c0.011,7.201-3.325,14.173-9.308,18.66l-13.964,10.473l-23.273,17.455
	L223.419,181.527c-4.138,3.103-9.05,4.655-13.964,4.655s-9.826-1.552-13.964-4.655L46.546,69.818L23.274,52.364L9.31,41.891
	c-5.983-4.489-9.318-11.461-9.308-18.66c0,0.014-0.002,0.026-0.002,0.042v279.273c0,12.853,10.42,23.273,23.273,23.273h164.579
	c1.143-7.956,2.863-15.729,5.117-23.273c2.4-8.034,5.398-15.808,8.952-23.273c2.284-4.794,4.81-9.452,7.534-13.976
	c28.526-47.358,80.435-79.115,139.636-79.115c7.902,0,15.669,0.577,23.273,1.669c7.956,1.142,15.729,2.864,23.273,5.117
	c8.034,2.399,15.808,5.398,23.273,8.954V23.273C418.91,23.257,418.908,23.245,418.908,23.231z"/>
<path style="fill:#F2D23D;" d="M418.8,21.076c-0.022-0.216-0.054-0.433-0.081-0.649c-0.059-0.478-0.13-0.951-0.217-1.418
	c-0.053-0.285-0.112-0.571-0.175-0.856c-0.088-0.396-0.192-0.784-0.299-1.168c-0.085-0.299-0.163-0.602-0.261-0.9
	c-0.019-0.057-0.031-0.115-0.05-0.172c-0.121-0.363-0.267-0.715-0.405-1.069c-0.13-0.334-0.261-0.664-0.403-0.988
	c-0.225-0.506-0.461-1.007-0.721-1.494c-0.118-0.225-0.25-0.439-0.375-0.658c-0.223-0.391-0.455-0.776-0.7-1.151
	c-0.137-0.211-0.281-0.417-0.424-0.621c-0.267-0.382-0.546-0.754-0.836-1.12c-0.138-0.174-0.275-0.351-0.419-0.52
	c-0.363-0.431-0.743-0.849-1.136-1.252c-0.085-0.087-0.164-0.178-0.248-0.265c-0.484-0.481-0.99-0.937-1.513-1.375
	c-0.152-0.124-0.309-0.239-0.464-0.36c-0.375-0.298-0.757-0.588-1.151-0.863c-0.222-0.154-0.447-0.301-0.673-0.447
	c-0.349-0.225-0.703-0.439-1.063-0.645c-0.247-0.141-0.493-0.284-0.748-0.416c-0.388-0.206-0.788-0.391-1.192-0.574
	c-0.223-0.101-0.442-0.216-0.67-0.31c-0.597-0.248-1.207-0.47-1.829-0.669c-0.253-0.082-0.514-0.147-0.771-0.22
	c-0.417-0.118-0.841-0.23-1.269-0.326c-0.271-0.062-0.546-0.113-0.821-0.164c-0.456-0.085-0.915-0.155-1.381-0.213
	c-0.24-0.029-0.479-0.064-0.721-0.085C397.078,0.042,396.363,0,395.637,0H209.455H23.274c-0.726,0-1.441,0.042-2.149,0.109
	c-0.242,0.022-0.481,0.056-0.721,0.085c-0.465,0.057-0.925,0.127-1.381,0.213c-0.276,0.051-0.549,0.102-0.821,0.164
	c-0.428,0.096-0.85,0.208-1.269,0.326c-0.258,0.073-0.518,0.138-0.773,0.22c-0.619,0.199-1.23,0.419-1.828,0.667
	c-0.228,0.096-0.445,0.209-0.67,0.31c-0.403,0.183-0.804,0.368-1.192,0.574c-0.251,0.133-0.498,0.275-0.745,0.416
	c-0.36,0.206-0.714,0.422-1.063,0.645c-0.225,0.146-0.451,0.295-0.673,0.447C9.595,4.451,9.214,4.74,8.838,5.039
	C8.685,5.16,8.526,5.275,8.374,5.399C7.851,5.837,7.346,6.294,6.863,6.774C6.778,6.861,6.699,6.952,6.615,7.039
	C6.221,7.443,5.842,7.858,5.478,8.291C5.335,8.46,5.198,8.636,5.059,8.813C4.769,9.176,4.491,9.55,4.224,9.93
	c-0.144,0.203-0.289,0.411-0.425,0.622c-0.245,0.375-0.475,0.76-0.7,1.151c-0.126,0.219-0.258,0.433-0.375,0.658
	c-0.261,0.486-0.496,0.988-0.721,1.494c-0.143,0.324-0.273,0.655-0.403,0.987c-0.138,0.355-0.284,0.706-0.405,1.069
	c-0.02,0.057-0.031,0.115-0.05,0.172c-0.098,0.298-0.175,0.6-0.261,0.9c-0.107,0.386-0.211,0.774-0.299,1.17
	c-0.064,0.285-0.123,0.571-0.175,0.856c-0.087,0.467-0.158,0.94-0.217,1.418c-0.026,0.216-0.059,0.433-0.081,0.649
	c-0.067,0.709-0.107,1.427-0.109,2.155c-0.011,7.199,3.325,14.172,9.308,18.66l13.964,10.473l23.273,17.455l148.945,111.709
	c4.138,3.103,9.05,4.655,13.964,4.655s9.826-1.552,13.964-4.655L372.364,69.818l23.273-17.455l13.964-10.473
	c5.983-4.489,9.318-11.461,9.308-18.66C418.907,22.503,418.866,21.785,418.8,21.076z"/>
<path style="fill:#F5DC60;" d="M195.492,181.527L46.546,69.818L23.274,52.364L9.31,41.891c-5.983-4.489-9.318-11.461-9.308-18.66
	c0,0.014-0.002,0.026-0.002,0.042v279.273c0,12.853,10.42,23.273,23.273,23.273h164.579c1.143-7.956,2.863-15.729,5.117-23.273
	c2.4-8.034,5.398-15.808,8.952-23.273c2.284-4.794,4.81-9.452,7.534-13.976v-79.115C204.542,186.182,199.63,184.63,195.492,181.527z
	"/>
<path style="fill:#EEBF00;" d="M9.31,41.891l13.964,10.473l23.273,17.455l148.945,111.709c4.138,3.103,9.05,4.655,13.964,4.655V0
	H23.274c-0.726,0-1.441,0.042-2.149,0.109c-0.242,0.022-0.481,0.056-0.721,0.085c-0.465,0.057-0.925,0.127-1.381,0.213
	c-0.276,0.051-0.549,0.102-0.821,0.164c-0.428,0.095-0.85,0.208-1.269,0.326c-0.258,0.073-0.518,0.138-0.773,0.22
	c-0.619,0.199-1.23,0.419-1.828,0.667c-0.227,0.095-0.445,0.209-0.67,0.31c-0.403,0.183-0.804,0.368-1.192,0.574
	c-0.251,0.133-0.498,0.276-0.745,0.416c-0.36,0.206-0.714,0.422-1.063,0.645c-0.225,0.146-0.451,0.295-0.673,0.447
	C9.595,4.451,9.214,4.74,8.838,5.039C8.685,5.16,8.526,5.275,8.374,5.399C7.851,5.837,7.346,6.294,6.863,6.774
	C6.778,6.861,6.699,6.952,6.615,7.039C6.221,7.443,5.842,7.858,5.478,8.291C5.333,8.46,5.198,8.636,5.059,8.813
	C4.769,9.176,4.491,9.55,4.224,9.93c-0.144,0.203-0.289,0.411-0.425,0.622c-0.245,0.375-0.475,0.76-0.7,1.151
	c-0.126,0.219-0.258,0.433-0.375,0.658c-0.261,0.486-0.496,0.988-0.721,1.494c-0.143,0.324-0.273,0.655-0.403,0.987
	c-0.138,0.355-0.284,0.706-0.405,1.071c-0.02,0.057-0.031,0.115-0.05,0.172c-0.098,0.298-0.175,0.6-0.261,0.9
	c-0.107,0.385-0.211,0.773-0.299,1.168c-0.064,0.285-0.123,0.571-0.175,0.856c-0.087,0.467-0.158,0.94-0.217,1.418
	c-0.026,0.216-0.059,0.433-0.081,0.649c-0.067,0.709-0.107,1.427-0.109,2.155C-0.009,30.43,3.327,37.402,9.31,41.891z"/>
<path style="fill:#EA348B;" d="M325.819,395.636v-36.904l-6.817,6.816c-9.087,9.087-23.823,9.087-32.912,0
	c-9.089-9.087-9.089-23.823,0-32.912l46.545-46.547c0.025-0.025,0.053-0.045,0.079-0.07c0.518-0.515,1.061-1.005,1.624-1.469
	c0.279-0.227,0.571-0.427,0.856-0.639c0.323-0.24,0.638-0.49,0.971-0.715c0.34-0.225,0.689-0.42,1.036-0.627
	c0.304-0.183,0.604-0.375,0.918-0.543c0.351-0.186,0.711-0.348,1.069-0.514c0.33-0.158,0.655-0.321,0.995-0.464
	c0.348-0.143,0.701-0.258,1.053-0.385c0.365-0.13,0.726-0.27,1.098-0.385c0.351-0.105,0.707-0.182,1.063-0.273
	c0.38-0.096,0.757-0.203,1.145-0.279c0.41-0.082,0.822-0.13,1.235-0.188c0.34-0.048,0.673-0.113,1.018-0.149
	c0.763-0.074,1.528-0.115,2.296-0.115v-93.091c-64.856,0-120.976,38.101-147.171,93.091c-3.555,7.464-6.554,15.239-8.952,23.273
	c-2.254,7.543-3.973,15.317-5.117,23.273c-1.092,7.604-1.669,15.371-1.669,23.273c0,89.828,73.079,162.909,162.909,162.909v-93.091
	C336.239,418.909,325.819,408.489,325.819,395.636z"/>
<g>
</g>
<g>
</g>
<g>
</g>
<g>
</g>
<g>
</g>
<g>
</g>
<g>
</g>
<g>
</g>
<g>
</g>
<g>
</g>
<g>
</g>
<g>
</g>
<g>
</g>
<g>
</g>
<g>
</g>
</svg>
