<svg id="Capa_1" data-name="Capa 1" xmlns="http://www.w3.org/2000/svg" viewBox="0 0 512.002 419.189">
  <defs>
    <style>
      .cls-1 {
        fill: #fff;
      }
    </style>
  </defs>
  <title>fc290f70-563e-4730-9d47-600c55829b7e</title>
  <g id="_Group_" data-name="&lt;Group&gt;">
    <path id="_Path_" data-name="&lt;Path&gt;" class="cls-1" d="M500.4,48.377A194.084,194.084,0,0,1,475.635,57.4a109.462,109.462,0,0,0,22.287-39.193,8.259,8.259,0,0,0-12.078-9.619,194.88,194.88,0,0,1-57.6,22.764A109.958,109.958,0,0,0,241.392,109.91a112.12,112.12,0,0,0,.9,14.2A281.392,281.392,0,0,1,49.156,21.648a8.26,8.26,0,0,0-13.537,1.06,110.071,110.071,0,0,0,11.272,126.51A93.1,93.1,0,0,1,32.18,142.65a8.259,8.259,0,0,0-12.267,7.031c-0.012.487-.012,0.974-0.012,1.468a110.3,110.3,0,0,0,53.8,94.52c-2.795-.279-5.587-0.684-8.362-1.214a8.258,8.258,0,0,0-9.413,10.631,109.875,109.875,0,0,0,80.514,73.67A194.449,194.449,0,0,1,32.507,358.421a198.849,198.849,0,0,1-23.279-1.364A8.258,8.258,0,0,0,3.8,372.209a296.409,296.409,0,0,0,160.284,46.98c111.9,0,181.907-52.769,220.926-97.037,48.657-55.2,76.562-128.261,76.562-200.451,0-3.016-.046-6.061-0.139-9.1a213.668,213.668,0,0,0,49.173-52.085A8.258,8.258,0,0,0,500.4,48.377Z"/>
  </g>
</svg>
