<svg id="Capa_1" data-name="Capa 1" xmlns="http://www.w3.org/2000/svg" viewBox="0 0 511.997 511.997">
  <defs>
    <style>
      .cls-1 {
        fill: #fff;
      }
    </style>
  </defs>
  <title>50940ab6-2d48-49bf-8d9b-869ebf3c97a8</title>
  <g>
    <path class="cls-1" d="M370.7,0H141.29C63.383,0,0,63.386,0,141.293V370.7C0,448.614,63.383,512,141.29,512H370.7C448.614,512,512,448.611,512,370.7V141.293C512,63.386,448.614,0,370.7,0Zm95.872,370.7A95.976,95.976,0,0,1,370.7,466.57H141.29A95.97,95.97,0,0,1,45.427,370.7V141.293A95.974,95.974,0,0,1,141.29,45.427H370.7a95.977,95.977,0,0,1,95.869,95.866V370.7h0Z"/>
    <path class="cls-1" d="M256,124.076c-72.747,0-131.929,59.182-131.929,131.929S183.252,387.927,256,387.927,387.927,328.748,387.927,256,328.745,124.076,256,124.076ZM256,342.5A86.5,86.5,0,1,1,342.5,256,86.6,86.6,0,0,1,256,342.5Z"/>
    <path class="cls-1" d="M393.46,85.557a33.294,33.294,0,1,0,23.561,9.752A33.444,33.444,0,0,0,393.46,85.557Z"/>
  </g>
</svg>
