<?xml version="1.0" encoding="utf-8"?>
<!-- Generator: Adobe Illustrator 20.1.0, SVG Export Plug-In . SVG Version: 6.00 Build 0)  -->
<svg version="1.1" id="Layer_1" xmlns="http://www.w3.org/2000/svg" xmlns:xlink="http://www.w3.org/1999/xlink" x="0px" y="0px"
	 viewBox="0 0 535 235" style="enable-background:new 0 0 535 235;" xml:space="preserve">
<style type="text/css">
	.st0{fill:#FFFFFF;}
</style>
<g>
	<g>
		<g>
			<g>
				<circle class="st0" cx="86" cy="22" r="8.2"/>
			</g>
		</g>
		<path class="st0" d="M146.4,102.2c0,1.3-1.1,2.4-2.4,2.4H28c-1.3,0-2.4-1.1-2.4-2.4l0,0c0-1.3,1.1-2.4,2.4-2.4h116
			C145.3,99.8,146.4,100.9,146.4,102.2L146.4,102.2z"/>
		<g>
			<path class="st0" d="M41,88.8c0-12.1,4.6-22.2,13.9-30.3c9.2-8.2,20.7-12.3,34.5-12.3c18.6,0,33,9,43.5,27l-19.7,11.7
				c-3.7-6.4-7.2-10.6-10.5-12.5c-3.5-2.2-8-3.3-13.4-3.3c-6.7,0-12.3,1.9-16.8,5.7c-4.4,3.8-6.7,8.5-6.7,14.2
				c0,2.3,0.5,4.5,1.5,6.6h84.1c0-36.1-29.2-65.3-65.3-65.3S20.8,59.5,20.8,95.6h20.9C41.2,93.3,41,91.1,41,88.8z"/>
		</g>
		<path class="st0" d="M99.8,115.2L89.6,111H48.3c5.4,7.7,14.2,14.2,26.4,19.3l15.5,6.5c4,1.7,7.5,3.6,10.4,5.5s5.3,4,7.1,6.1
			c1.8,2.2,3.2,4.6,4.1,7.2c0.9,2.6,1.3,5.5,1.3,8.6c0,7.8-2.5,14.2-7.5,19.3s-11.3,7.6-18.9,7.6c-9.6,0-16.9-3.5-21.9-10.4
			C62,177,60.1,170.5,59,161l-24.6,5.4c2.2,15,7.8,26.7,16.8,35c9.1,8.3,20.6,12.5,34.6,12.5c14.7,0,27.1-4.9,37-14.6
			c9.9-9.7,14.8-21.9,14.8-36.7c0-11.1-3-20.4-9.1-28C122.5,126.9,112.9,120.5,99.8,115.2z"/>
	</g>
</g>
<g>
	<path class="st0" d="M165,100.4v38.8c0,5.5,0.9,9.6,2.7,12.1c2.7,3.7,6.5,5.6,11.4,5.6s8.7-1.9,11.5-5.6c1.8-2.5,2.7-6.5,2.7-12.1
		v-38.8h9.7v41.5c0,6.8-2.1,12.4-6.4,16.8c-4.8,4.9-10.6,7.4-17.6,7.4c-6.9,0-12.8-2.5-17.5-7.4c-4.2-4.4-6.3-10-6.3-16.8v-41.5
		C155.2,100.4,165,100.4,165,100.4z"/>
	<path class="st0" d="M250,131.3h26.7v2.1c0,4.8-0.6,9.1-1.7,12.9c-1.1,3.5-3,6.7-5.6,9.7c-6,6.7-13.6,10.1-22.9,10.1
		c-9,0-16.8-3.3-23.2-9.8s-9.7-14.4-9.7-23.6c0-9.4,3.3-17.3,9.8-23.8s14.5-9.8,23.9-9.8c5,0,9.8,1,14.1,3.1
		c4.2,2.1,8.3,5.4,12.3,10l-6.9,6.6c-5.3-7-11.7-10.6-19.3-10.6c-6.8,0-12.5,2.4-17.2,7.1c-4.6,4.6-6.9,10.4-6.9,17.4
		c0,7.2,2.6,13.1,7.7,17.8c4.8,4.3,10,6.5,15.7,6.5c4.8,0,9.1-1.6,12.9-4.8c3.8-3.3,5.9-7.1,6.4-11.7H250V131.3z"/>
	<path class="st0" d="M322.7,109.5h-25.9V125H322v9.2h-25.1v21.6h25.9v9.2h-35.6v-64.5h35.6L322.7,109.5L322.7,109.5z"/>
	<path class="st0" d="M343.5,100.4v55.4h19v9.2h-28.7v-64.5L343.5,100.4L343.5,100.4z"/>
	<path class="st0" d="M379.8,100.4v64.5H370v-64.5C370,100.4,379.8,100.4,379.8,100.4z"/>
	<path class="st0" d="M441.2,103.8v11.5c-5.6-4.7-11.4-7.1-17.5-7.1c-6.6,0-12.2,2.4-16.8,7.1c-4.6,4.7-6.9,10.5-6.9,17.4
		c0,6.8,2.3,12.5,6.9,17.1c4.6,4.7,10.2,7,16.8,7c3.4,0,6.3-0.6,8.7-1.7c1.3-0.6,2.7-1.3,4.2-2.3c1.4-0.9,2.9-2.1,4.5-3.4v11.8
		c-5.6,3.2-11.4,4.7-17.5,4.7c-9.2,0-17.1-3.2-23.6-9.7s-9.7-14.3-9.7-23.5c0-8.2,2.7-15.5,8.1-22c6.7-7.9,15.3-11.8,25.9-11.8
		C430.2,99.1,435.8,100.7,441.2,103.8z"/>
	<path class="st0" d="M448.2,132.3c0-9.1,3.3-16.9,10-23.4c6.6-6.5,14.6-9.8,23.9-9.8c9.2,0,17.1,3.3,23.7,9.9s9.9,14.5,9.9,23.7
		c0,9.3-3.3,17.1-9.9,23.6c-6.7,6.5-14.7,9.7-24.1,9.7c-8.3,0-15.8-2.9-22.4-8.6C451.8,151,448.2,142.7,448.2,132.3z M458,132.4
		c0,7.1,2.4,13,7.2,17.6c4.8,4.6,10.3,6.9,16.5,6.9c6.8,0,12.5-2.3,17.1-7c4.7-4.7,7-10.5,7-17.3c0-6.9-2.3-12.6-6.9-17.3
		c-4.6-4.7-10.2-7-17-7c-6.7,0-12.4,2.3-17,7C460.3,119.9,458,125.6,458,132.4z"/>
</g>
<g>
	<path class="st0" d="M174.9,178.2l-2,1.2c-0.4-0.6-0.7-1-1-1.2s-0.8-0.3-1.3-0.3c-0.7,0-1.2,0.2-1.7,0.6c-0.4,0.4-0.7,0.8-0.7,1.4
		c0,0.8,0.6,1.4,1.7,1.9l1.6,0.7c1.3,0.5,2.2,1.2,2.8,1.9c0.6,0.8,0.9,1.7,0.9,2.8c0,1.5-0.5,2.7-1.5,3.6c-1,1-2.2,1.5-3.7,1.5
		c-1.4,0-2.5-0.4-3.4-1.2s-1.4-2-1.7-3.5l2.4-0.5c0.1,0.9,0.3,1.6,0.6,1.9c0.5,0.7,1.2,1,2.2,1c0.8,0,1.4-0.3,1.9-0.8
		s0.7-1.1,0.7-1.9c0-0.3,0-0.6-0.1-0.9c-0.1-0.3-0.2-0.5-0.4-0.7s-0.4-0.4-0.7-0.6c-0.3-0.2-0.6-0.4-1-0.5L169,184
		c-2.2-0.9-3.3-2.3-3.3-4.1c0-1.2,0.5-2.2,1.4-3s2.1-1.2,3.4-1.2C172.5,175.5,173.9,176.4,174.9,178.2z"/>
	<path class="st0" d="M181.5,175.8v9.6c0,1.4,0.2,2.4,0.7,3c0.7,0.9,1.6,1.4,2.8,1.4s2.2-0.5,2.8-1.4c0.4-0.6,0.7-1.6,0.7-3v-9.6
		h2.4v10.3c0,1.7-0.5,3.1-1.6,4.2c-1.2,1.2-2.6,1.8-4.3,1.8s-3.2-0.6-4.3-1.8c-1-1.1-1.6-2.5-1.6-4.2v-10.3H181.5z"/>
	<path class="st0" d="M203.9,183.5h6.6v0.5c0,1.2-0.1,2.3-0.4,3.2c-0.3,0.9-0.7,1.7-1.4,2.4c-1.5,1.7-3.4,2.5-5.7,2.5
		c-2.2,0-4.2-0.8-5.7-2.4c-1.6-1.6-2.4-3.6-2.4-5.8c0-2.3,0.8-4.3,2.4-5.9c1.6-1.6,3.6-2.4,5.9-2.4c1.2,0,2.4,0.3,3.5,0.8
		c1,0.5,2.1,1.3,3.1,2.5l-1.7,1.6c-1.3-1.7-2.9-2.6-4.8-2.6c-1.7,0-3.1,0.6-4.3,1.8c-1.1,1.1-1.7,2.6-1.7,4.3c0,1.8,0.6,3.2,1.9,4.4
		c1.2,1.1,2.5,1.6,3.9,1.6c1.2,0,2.3-0.4,3.2-1.2s1.5-1.8,1.6-2.9h-4L203.9,183.5L203.9,183.5z"/>
	<path class="st0" d="M216.8,175.8v16h-2.4v-16H216.8z"/>
	<path class="st0" d="M230.3,178.1h-6.4v3.8h6.2v2.3h-6.2v5.3h6.4v2.3h-8.8v-16h8.8V178.1z"/>
	<path class="st0" d="M239.7,185l5,6.8h-3l-4.6-6.5h-0.4v6.5h-2.4v-16h2.8c2.1,0,3.6,0.4,4.6,1.2c1,0.9,1.6,2.1,1.6,3.5
		c0,1.1-0.3,2.1-1,2.9C241.6,184.2,240.8,184.8,239.7,185z M236.7,183.2h0.8c2.3,0,3.4-0.9,3.4-2.6c0-1.6-1.1-2.5-3.3-2.5h-0.9
		V183.2z"/>
	<path class="st0" d="M256.7,178.1h-6.4v3.8h6.2v2.3h-6.2v5.3h6.4v2.3h-8.8v-16h8.8L256.7,178.1L256.7,178.1z"/>
	<path class="st0" d="M260.2,191.8l3.4-17.2L269,187l5.7-12.4l3,17.2h-2.5l-1.5-9.7l-4.7,10.4l-4.6-10.4l-1.7,9.7H260.2z"/>
	<path class="st0" d="M290.8,178.1h-6.4v3.8h6.2v2.3h-6.2v5.3h6.4v2.3H282v-16h8.8V178.1z"/>
	<path class="st0" d="M300.3,185.7h4.6v2h-4.6V185.7z"/>
	<path class="st0" d="M318.3,184.9l-5.2-9.1h2.8l3.7,6.4l3.7-6.4h2.8l-5.2,9.1v6.9h-2.4v-6.9H318.3z"/>
	<path class="st0" d="M327.1,183.7c0-2.3,0.8-4.2,2.5-5.8c1.6-1.6,3.6-2.4,5.9-2.4s4.2,0.8,5.9,2.4c1.6,1.6,2.5,3.6,2.5,5.9
		c0,2.3-0.8,4.3-2.5,5.9c-1.7,1.6-3.6,2.4-6,2.4c-2.1,0-3.9-0.7-5.6-2.1C328,188.4,327.1,186.3,327.1,183.7z M329.5,183.8
		c0,1.8,0.6,3.2,1.8,4.4c1.2,1.1,2.5,1.7,4.1,1.7c1.7,0,3.1-0.6,4.2-1.7c1.2-1.2,1.7-2.6,1.7-4.3s-0.6-3.1-1.7-4.3s-2.5-1.7-4.2-1.7
		s-3.1,0.6-4.2,1.7C330.1,180.7,329.5,182.1,329.5,183.8z"/>
	<path class="st0" d="M363.9,178.1h-6.4v3.8h6.2v2.3h-6.2v5.3h6.4v2.3H355v-16h8.8v2.3H363.9z"/>
	<path class="st0" d="M370.3,175.8v13.7h4.7v2.3h-7.1v-16H370.3z"/>
	<path class="st0" d="M380.6,175.8v16h-2.4v-16H380.6z"/>
	<path class="st0" d="M390.1,175.8v10.3c0,1.2-0.1,2.2-0.3,2.8c-0.2,0.7-0.5,1.3-0.9,1.8c-0.8,0.9-1.9,1.4-3.2,1.4
		c-1,0-2-0.3-2.8-0.8l1.2-2.1c0.6,0.4,1.1,0.6,1.6,0.6c0.7,0,1.2-0.3,1.5-0.8s0.4-1.5,0.4-2.9v-10.3H390.1z"/>
	<path class="st0" d="M394,183.7c0-2.3,0.8-4.2,2.5-5.8c1.6-1.6,3.6-2.4,5.9-2.4s4.2,0.8,5.9,2.4c1.6,1.6,2.5,3.6,2.5,5.9
		c0,2.3-0.8,4.3-2.5,5.9c-1.6,1.6-3.6,2.4-6,2.4c-2.1,0-3.9-0.7-5.6-2.1C394.9,188.4,394,186.3,394,183.7z M396.4,183.8
		c0,1.8,0.6,3.2,1.8,4.4c1.2,1.1,2.5,1.7,4.1,1.7c1.7,0,3.1-0.6,4.2-1.7c1.2-1.2,1.7-2.6,1.7-4.3s-0.6-3.1-1.7-4.3s-2.5-1.7-4.2-1.7
		s-3.1,0.6-4.2,1.7C397,180.7,396.4,182.1,396.4,183.8z"/>
	<path class="st0" d="M433.8,176.7v2.9c-1.4-1.2-2.8-1.8-4.3-1.8c-1.6,0-3,0.6-4.2,1.8c-1.1,1.2-1.7,2.6-1.7,4.3s0.6,3.1,1.7,4.2
		c1.1,1.2,2.5,1.7,4.2,1.7c0.8,0,1.6-0.1,2.2-0.4c0.3-0.1,0.7-0.3,1-0.6c0.4-0.2,0.7-0.5,1.1-0.8v2.9c-1.4,0.8-2.8,1.2-4.3,1.2
		c-2.3,0-4.2-0.8-5.9-2.4c-1.6-1.6-2.4-3.5-2.4-5.8c0-2,0.7-3.9,2-5.4c1.7-2,3.8-2.9,6.4-2.9C431.1,175.5,432.5,175.9,433.8,176.7z"
		/>
	<path class="st0" d="M436.8,183.7c0-2.3,0.8-4.2,2.5-5.8c1.6-1.6,3.6-2.4,5.9-2.4s4.2,0.8,5.9,2.4c1.6,1.6,2.5,3.6,2.5,5.9
		c0,2.3-0.8,4.3-2.5,5.9c-1.7,1.6-3.6,2.4-6,2.4c-2.1,0-3.9-0.7-5.6-2.1C437.7,188.4,436.8,186.3,436.8,183.7z M439.2,183.8
		c0,1.8,0.6,3.2,1.8,4.4c1.2,1.1,2.5,1.7,4.1,1.7c1.7,0,3.1-0.6,4.2-1.7c1.2-1.2,1.7-2.6,1.7-4.3s-0.6-3.1-1.7-4.3s-2.5-1.7-4.2-1.7
		s-3.1,0.6-4.2,1.7C439.8,180.7,439.2,182.1,439.2,183.8z"/>
	<path class="st0" d="M456.8,191.8l3.4-17.2l5.5,12.4l5.7-12.4l3,17.2h-2.5l-1.5-9.7l-4.7,10.4l-4.6-10.4l-1.7,9.7H456.8z"/>
	<path class="st0" d="M477.8,183.7c0-2.3,0.8-4.2,2.5-5.8c1.6-1.6,3.6-2.4,5.9-2.4s4.2,0.8,5.9,2.4c1.6,1.6,2.5,3.6,2.5,5.9
		c0,2.3-0.8,4.3-2.5,5.9c-1.7,1.6-3.6,2.4-6,2.4c-2.1,0-3.9-0.7-5.6-2.1C478.7,188.4,477.8,186.3,477.8,183.7z M480.3,183.8
		c0,1.8,0.6,3.2,1.8,4.4c1.2,1.1,2.5,1.7,4.1,1.7c1.7,0,3.1-0.6,4.2-1.7c1.2-1.2,1.7-2.6,1.7-4.3s-0.6-3.1-1.7-4.3s-2.5-1.7-4.2-1.7
		s-3.1,0.6-4.2,1.7C480.8,180.7,480.3,182.1,480.3,183.8z"/>
</g>
</svg>
