<?xml version="1.0" encoding="utf-8"?>
<!-- Generator: Adobe Illustrator 20.1.0, SVG Export Plug-In . SVG Version: 6.00 Build 0)  -->
<svg version="1.1" id="Capa_1" xmlns="http://www.w3.org/2000/svg" xmlns:xlink="http://www.w3.org/1999/xlink" x="0px" y="0px"
	 viewBox="0 0 1000 1000" style="enable-background:new 0 0 1000 1000;" xml:space="preserve">
<style type="text/css">
	.st0{fill:#FFFFFF;}
</style>
<g>
	<g>
		<g>
			<g>
				<ellipse class="st0" cx="500" cy="63.2" rx="38.8" ry="38.8"/>
			</g>
		</g>
		<path class="st0" d="M787.1,444.5c0,6.2-5.1,11.3-11.3,11.3H224.2c-6.2,0-11.3-5-11.3-11.3l0,0c0-6.2,5-11.3,11.3-11.3h551.6
			C782,433.2,787.1,438.3,787.1,444.5L787.1,444.5z"/>
		<g>
			<path class="st0" d="M286.1,380.6c0-57.4,22-105.4,65.9-144.1c43.9-38.9,98.6-58.4,164-58.4c88.2,0,157.1,42.8,206.6,128.3
				L629,361.9c-17.5-30.4-34.2-50.2-50-59.5c-16.5-10.6-37.8-15.9-63.9-15.9c-32,0-58.6,9.1-79.8,27.3
				c-21.1,17.9-31.7,40.3-31.7,67.4c0,11.1,2.5,21.5,7.4,31.3h399.6C810.5,241,671.5,102,500,102S189.5,241,189.5,412.5h99.2
				C287,402.2,286.1,391.6,286.1,380.6z"/>
		</g>
		<path class="st0" d="M565.9,506.3l-48.6-19.9H320.7c25.9,36.8,67.6,67.4,125.3,91.8l73.8,30.7c19.2,8.3,35.7,16.9,49.5,26
			c13.9,9.1,25.2,18.8,33.9,29.2s15.2,21.8,19.3,34.2s6.2,26,6.2,40.8c0,37-11.9,67.5-35.7,91.6s-53.7,36.1-89.7,36.1
			c-45.6,0-80.3-16.5-104-49.5c-13.2-17.2-22.5-48.2-27.7-93.1L254.7,750c10.6,71.3,37.2,126.7,79.8,166.2
			c43.3,39.5,98.1,59.2,164.5,59.2c70,0,128.6-23.1,175.9-69.4c46.9-45.9,70.3-104.1,70.3-174.5c0-52.5-14.4-96.9-43.1-133.1
			C673.4,562.1,628,531.4,565.9,506.3z"/>
	</g>
</g>
</svg>
