<?xml version="1.0" encoding="iso-8859-1"?>
<!-- Generator: Adobe Illustrator 19.0.0, SVG Export Plug-In . SVG Version: 6.00 Build 0)  -->
<svg version="1.1" id="Layer_1" xmlns="http://www.w3.org/2000/svg" xmlns:xlink="http://www.w3.org/1999/xlink" x="0px" y="0px"
	 viewBox="0 0 512 512" style="enable-background:new 0 0 512 512;" xml:space="preserve">
<path style="fill:#E9F2F4;" d="M512,228.174C512,314.234,442.234,384,356.174,384s-155.826-69.766-155.826-155.826
	S270.113,72.348,356.174,72.348S512,142.113,512,228.174z"/>
<path style="fill:#CFDFE2;" d="M445.217,228.174c0,49.178-39.866,89.043-89.043,89.043s-89.043-39.866-89.043-89.043
	s39.866-89.043,89.043-89.043S445.217,178.996,445.217,228.174z"/>
<path style="fill:#BF5243;" d="M189.217,484.174h-59.851c-10.527,0-19.615-7.374-21.783-17.675L66.783,272.696h144.696v189.217
	C211.478,474.208,201.512,484.174,189.217,484.174z"/>
<path style="fill:#AD3A2D;" d="M189.217,484.174h-4.198c-10.527,0-19.615-7.374-21.783-17.675l-40.801-193.803h89.043v189.217
	C211.478,474.208,201.512,484.174,189.217,484.174z"/>
<path style="fill:#FC8059;" d="M144.696,294.957H66.783C29.9,294.957,0,265.057,0,228.174l0,0c0-36.883,29.9-66.783,66.783-66.783
	h77.913V294.957z"/>
<path style="fill:#FF997D;" d="M144.696,239.304H72.348c-21.515,0-38.957-17.441-38.957-38.957l0,0
	c0-21.515,17.441-38.957,38.957-38.957h72.348V239.304z"/>
<path style="fill:#FED766;" d="M333.913,77.429v301.006h-22.261v0.483l-158.499-51.683c-18.321-5.975-30.719-23.058-30.719-42.329
	V171.441c0-19.27,12.398-36.354,30.719-42.328l158.499-51.684H333.913z"/>
<path style="fill:#FFDE8A;" d="M333.913,77.429v211.962h-22.261v0.483l-111.687-36.42c-12.91-4.21-21.646-16.247-21.646-29.827
	v-79.953c0-13.579,8.736-25.617,21.646-29.826l111.687-36.419H333.913z"/>
<path style="fill:#FC8059;" d="M311.652,395.13V61.217c0-18.442,14.949-33.391,33.391-33.391l0,0
	c18.442,0,33.391,14.949,33.391,33.391V395.13c0,18.442-14.949,33.391-33.391,33.391l0,0
	C326.601,428.522,311.652,413.572,311.652,395.13z"/>
<path style="fill:#BF5243;" d="M345.043,428.522c-18.442,0-33.391-14.949-33.391-33.391V61.217
	c0-18.441,14.949-33.391,33.391-33.391V428.522z"/>
<g>
</g>
<g>
</g>
<g>
</g>
<g>
</g>
<g>
</g>
<g>
</g>
<g>
</g>
<g>
</g>
<g>
</g>
<g>
</g>
<g>
</g>
<g>
</g>
<g>
</g>
<g>
</g>
<g>
</g>
</svg>
