<?xml version="1.0" encoding="utf-8"?>
<!-- Generator: Adobe Illustrator 20.1.0, SVG Export Plug-In . SVG Version: 6.00 Build 0)  -->
<svg version="1.1" id="Capa_1" xmlns="http://www.w3.org/2000/svg" xmlns:xlink="http://www.w3.org/1999/xlink" x="0px" y="0px"
	 viewBox="0 0 512 512" style="enable-background:new 0 0 512 512;" xml:space="preserve">
<style type="text/css">
	.st0{fill:#FFFFFF;}
</style>
<path class="st0" d="M256,202.1c55.7,0,101-45.3,101-101S311.7,0,256,0S155,45.3,155,101S200.3,202.1,256,202.1z"/>
<path class="st0" d="M391.6,251L391.6,251c0,0-0.1,0-0.2-0.1c-13.2-3.2-53.4-8.8-53.4-8.8c-4.5-1.4-9.4,1-11,5.5L266.3,414
	c-3.5,9.6-17.1,9.6-20.6,0l-60.6-166.4c-1.3-3.6-4.7-5.9-8.4-5.9c-0.9,0-42.3,5.8-56.1,9.2c-37.7,9.4-61.4,46.4-61.4,85v138.4
	c0,20.7,16.8,37.6,37.6,37.6h318.5c20.7,0,37.6-16.8,37.6-37.6V335.5C452.8,297.1,428.1,263,391.6,251z M388.3,366.7
	c-3,3-6.8,4.5-11.3,4.5c-4.3,0-7.8-1.3-10.6-3.8c-2.7-2.5-4.4-6.1-5.1-10.7l7.5-1.7c0.3,2.9,0.9,4.9,1.8,6c1.5,2.1,3.8,3.2,6.7,3.2
	c2.3,0,4.2-0.8,5.8-2.3c1.5-1.5,2.3-3.5,2.3-5.9c0-1-0.1-1.8-0.4-2.6c-0.3-0.8-0.7-1.5-1.2-2.2s-1.3-1.3-2.2-1.9
	c-0.9-0.6-1.9-1.1-3.2-1.7l-4.7-2c-3.7-1.6-6.4-3.5-8.1-5.9h12.6l3.1,1.3c4,1.6,6.9,3.6,8.8,5.9c1.8,2.3,2.8,5.2,2.8,8.6
	C392.8,360.1,391.3,363.8,388.3,366.7z M394.7,337.8h-35.5c-0.4,0-0.7-0.3-0.7-0.7c0-0.4,0.3-0.7,0.7-0.7h35.5
	c0.4,0,0.7,0.3,0.7,0.7S395.1,337.8,394.7,337.8z M371.3,335c-0.3-0.6-0.5-1.3-0.5-2c0-1.7,0.7-3.2,2-4.3c1.4-1.2,3.1-1.8,5.1-1.8
	c1.7,0,3,0.3,4.1,1c1,0.6,2.1,1.9,3.2,3.8l6-3.6c-3.2-5.5-7.6-8.2-13.3-8.2c-4.2,0-7.7,1.3-10.5,3.8s-4.2,5.6-4.2,9.3
	c0,0.7,0.1,1.4,0.2,2.1H357c0-11,8.9-20,20-20c-1.4,0-2.5-1.1-2.5-2.5s1.1-2.5,2.5-2.5s2.5,1.1,2.5,2.5s-1.1,2.5-2.5,2.5
	c11,0,20,8.9,20,20L371.3,335L371.3,335z"/>
<path class="st0" d="M278.9,239c-2.4-2.6-6-4-9.5-4h-26.7c-3.6,0-7.1,1.3-9.5,4c-3.7,4.1-4.3,10-1.6,14.6l14.3,21.5l-6.7,56.4
	l13.2,35c1.3,3.5,6.3,3.5,7.5,0l13.2-35l-6.7-56.4l14.3-21.5C283.2,248.9,282.6,243,278.9,239z"/>
</svg>
