<?xml version="1.0" encoding="utf-8"?>
<!-- Generator: Adobe Illustrator 20.1.0, SVG Export Plug-In . SVG Version: 6.00 Build 0)  -->
<svg version="1.1" id="Capa_1" xmlns="http://www.w3.org/2000/svg" xmlns:xlink="http://www.w3.org/1999/xlink" x="0px" y="0px"
	 viewBox="0 0 512 512" style="enable-background:new 0 0 512 512;" xml:space="preserve">
<style type="text/css">
	.st0{fill:#FFFFFF;}
</style>
<path class="st0" d="M256,202.1c55.7,0,101-45.3,101-101S311.7,0,256,0S155,45.3,155,101S200.3,202.1,256,202.1z"/>
<path class="st0" d="M391.6,251L391.6,251c0,0-0.1,0-0.2-0.1c-13.2-3.2-53.4-8.8-53.4-8.8c-4-1.2-54.3-5.8-66.1-6.9
	c-0.8-0.1-1.7-0.2-2.5-0.2h-26.7c-0.7,0-1.4,0.1-2.1,0.2c0-0.1-0.1-0.1-0.1-0.2c0,0-60.1,6.7-63.8,6.7c-0.9,0-42.3,5.8-56.1,9.2
	c-37.7,9.4-61.4,46.4-61.4,85v138.4c0,20.7,16.8,37.6,37.6,37.6h318.5c20.7,0,37.6-16.8,37.6-37.6V335.5
	C452.8,297.1,428.1,263,391.6,251z"/>
</svg>
