<?xml version="1.0" encoding="iso-8859-1"?>
<!-- Generator: Adobe Illustrator 19.0.0, SVG Export Plug-In . SVG Version: 6.00 Build 0)  -->
<svg version="1.1" id="Layer_1" xmlns="http://www.w3.org/2000/svg" xmlns:xlink="http://www.w3.org/1999/xlink" x="0px" y="0px"
	 viewBox="0 0 297.001 297.001" style="enable-background:new 0 0 297.001 297.001;" xml:space="preserve">
<g>
	<path style="fill:#6B3008;" d="M101.53,156.566H60.887H15.182V38.904c0-4.192-3.399-7.591-7.591-7.591
		C3.398,31.313,0,34.713,0,38.904v219.192c0,4.192,3.398,7.591,7.591,7.591c4.192,0,7.591-3.399,7.591-7.591v-55.035h45.705h33.052
		v55.035c0,4.192,3.399,7.591,7.591,7.591s7.591-3.399,7.591-7.591v-93.939C109.121,159.965,105.722,156.566,101.53,156.566z"/>
	<path style="fill:#7F3705;" d="M15.182,156.566V38.904c0-4.192-3.399-7.591-7.591-7.591C3.398,31.313,0,34.713,0,38.904v219.192
		c0,4.192,3.398,7.591,7.591,7.591c4.192,0,7.591-3.399,7.591-7.591v-55.035h45.705v-46.495H15.182V156.566z"/>
	<path style="fill:#6B3008;" d="M101.53,156.566H60.887v46.495h33.052v55.035c0,4.192,3.399,7.591,7.591,7.591
		s7.591-3.399,7.591-7.591v-93.939C109.121,159.965,105.722,156.566,101.53,156.566z"/>
	<path style="fill:#6B3008;" d="M289.409,31.313c-4.192,0-7.591,3.399-7.591,7.591v117.661h-43.965H195.47
		c-4.192,0-7.591,3.399-7.591,7.591v93.939c0,4.192,3.399,7.591,7.591,7.591s7.591-3.399,7.591-7.591v-55.035h34.793h43.965v55.035
		c0,4.192,3.399,7.591,7.591,7.591s7.591-3.399,7.591-7.591V38.904C297,34.713,293.601,31.313,289.409,31.313z"/>
	<path style="fill:#7F3705;" d="M195.47,156.566c-4.192,0-7.591,3.399-7.591,7.591v93.939c0,4.192,3.399,7.591,7.591,7.591
		s7.591-3.399,7.591-7.591v-55.035h34.793v-46.495H195.47z"/>
	<path style="fill:#6B3008;" d="M289.409,31.313c-4.192,0-7.591,3.399-7.591,7.591v117.661h-43.965v46.495h43.965v55.035
		c0,4.192,3.399,7.591,7.591,7.591c4.192,0,7.591-3.399,7.591-7.591V38.904C297,34.713,293.601,31.313,289.409,31.313z"/>
	<path style="fill:#3F1E15;" d="M253.826,78.283H148.658H43.174c-4.192,0-7.591,3.399-7.591,7.591v172.222
		c0,4.192,3.399,7.591,7.591,7.591s7.591-3.399,7.591-7.591V128.111h97.893h97.576v129.985c0,4.192,3.399,7.591,7.591,7.591
		c4.192,0,7.591-3.399,7.591-7.591V85.874C261.417,81.682,258.018,78.283,253.826,78.283z"/>
	<path style="fill:#5C2D1D;" d="M43.174,78.283c-4.192,0-7.591,3.399-7.591,7.591v172.222c0,4.192,3.399,7.591,7.591,7.591
		s7.591-3.399,7.591-7.591V128.111h97.893V78.283H43.174z"/>
	<path style="fill:#3F1E15;" d="M253.826,78.283H148.658v49.828h97.576v129.985c0,4.192,3.399,7.591,7.591,7.591
		c4.192,0,7.591-3.399,7.591-7.591V85.874C261.417,81.682,258.018,78.283,253.826,78.283z"/>
	<path style="fill:#A91523;" d="M148.658,78.283H58.585l84.451,91.296c1.431,1.484,3.404,2.322,5.464,2.322
		c0.053,0,0.105-0.007,0.158-0.008c2.003-0.042,3.912-0.868,5.306-2.314l84.451-91.296L148.658,78.283L148.658,78.283z"/>
	<path style="fill:#841222;" d="M238.415,78.283h-89.756v93.61c2.003-0.042,3.912-0.868,5.306-2.314L238.415,78.283z"/>
	<path style="fill:#A91523;" d="M58.585,78.283l84.45,91.296c1.431,1.484,3.404,2.322,5.464,2.322c0.053,0,0.105-0.007,0.158-0.008
		v-93.61C148.657,78.284,58.585,78.284,58.585,78.283z"/>
</g>
<g>
</g>
<g>
</g>
<g>
</g>
<g>
</g>
<g>
</g>
<g>
</g>
<g>
</g>
<g>
</g>
<g>
</g>
<g>
</g>
<g>
</g>
<g>
</g>
<g>
</g>
<g>
</g>
<g>
</g>
</svg>
